<?xml version="1.0" encoding="UTF-8" standalone="no"?>
<!DOCTYPE svg PUBLIC "-//W3C//DTD SVG 1.1//EN"
 "http://www.w3.org/Graphics/SVG/1.1/DTD/svg11.dtd">
<!-- Generated by graphviz version 12.2.1 (20241206.2353)
 -->
<!-- Title: ProjectStructure Pages: 1 -->
<svg width="4833pt" height="260pt"
 viewBox="0.00 0.00 4832.62 260.00" xmlns="http://www.w3.org/2000/svg" xmlns:xlink="http://www.w3.org/1999/xlink">
<g id="graph0" class="graph" transform="scale(1 1) rotate(0) translate(4 256)">
<title>ProjectStructure</title>
<polygon fill="white" stroke="none" points="-4,4 -4,-256 4828.62,-256 4828.62,4 -4,4"/>
<!-- _DS_Store -->
<g id="node1" class="node">
<title>_DS_Store</title>
<polygon fill="none" stroke="black" points="975.62,-108 903.38,-108 903.38,-72 975.62,-72 975.62,-108"/>
<text text-anchor="middle" x="939.5" y="-84.95" font-family="Times,serif" font-size="14.00">.DS_Store</text>
</g>
<!-- _env -->
<g id="node2" class="node">
<title>_env</title>
<polygon fill="none" stroke="black" points="2214.5,-252 2160.5,-252 2160.5,-216 2214.5,-216 2214.5,-252"/>
<text text-anchor="middle" x="2187.5" y="-228.95" font-family="Times,serif" font-size="14.00">.env</text>
</g>
<!-- _github -->
<g id="node3" class="node">
<title>_github</title>
<polygon fill="none" stroke="black" points="762.62,-180 708.38,-180 708.38,-144 762.62,-144 762.62,-180"/>
<text text-anchor="middle" x="735.5" y="-156.95" font-family="Times,serif" font-size="14.00">.github</text>
</g>
<!-- _github&#45;&gt;_DS_Store -->
<g id="edge1" class="edge">
<title>_github&#45;&gt;_DS_Store</title>
<path fill="none" stroke="black" d="M763.01,-151.56C796.12,-140.2 852.24,-120.94 892.3,-107.19"/>
<polygon fill="black" stroke="black" points="893.39,-110.52 901.72,-103.96 891.12,-103.9 893.39,-110.52"/>
</g>
<!-- workflows -->
<g id="node4" class="node">
<title>workflows</title>
<polygon fill="none" stroke="black" points="568.38,-108 494.62,-108 494.62,-72 568.38,-72 568.38,-108"/>
<text text-anchor="middle" x="531.5" y="-84.95" font-family="Times,serif" font-size="14.00">workflows</text>
</g>
<!-- _github&#45;&gt;workflows -->
<g id="edge2" class="edge">
<title>_github&#45;&gt;workflows</title>
<path fill="none" stroke="black" d="M707.99,-151.56C675.08,-140.27 619.44,-121.17 579.42,-107.44"/>
<polygon fill="black" stroke="black" points="580.6,-104.15 570.01,-104.21 578.33,-110.77 580.6,-104.15"/>
</g>
<!-- artifact_upload_yml -->
<g id="node5" class="node">
<title>artifact_upload_yml</title>
<polygon fill="none" stroke="black" points="121,-36 0,-36 0,0 121,0 121,-36"/>
<text text-anchor="middle" x="60.5" y="-12.95" font-family="Times,serif" font-size="14.00">artifact&#45;upload.yml</text>
</g>
<!-- workflows&#45;&gt;artifact_upload_yml -->
<g id="edge3" class="edge">
<title>workflows&#45;&gt;artifact_upload_yml</title>
<path fill="none" stroke="black" d="M494.25,-85.42C425.03,-78.48 271.74,-61.76 132.41,-36.23"/>
<polygon fill="black" stroke="black" points="133.08,-32.8 122.61,-34.42 131.8,-39.68 133.08,-32.8"/>
</g>
<!-- create_plain_text_project files and upload to gdrive_yml -->
<g id="node6" class="node">
<title>create_plain_text_project files and upload to gdrive_yml</title>
<polygon fill="none" stroke="black" points="461.5,-36 139.5,-36 139.5,0 461.5,0 461.5,-36"/>
<text text-anchor="middle" x="300.5" y="-12.95" font-family="Times,serif" font-size="14.00">create_plain_text_project files and upload to gdrive.yml</text>
</g>
<!-- workflows&#45;&gt;create_plain_text_project files and upload to gdrive_yml -->
<g id="edge4" class="edge">
<title>workflows&#45;&gt;create_plain_text_project files and upload to gdrive_yml</title>
<path fill="none" stroke="black" d="M494.13,-77.68C460.44,-67.47 410.06,-52.2 369.14,-39.8"/>
<polygon fill="black" stroke="black" points="370.17,-36.46 359.59,-36.91 368.14,-43.16 370.17,-36.46"/>
</g>
<!-- python_app_yml -->
<g id="node7" class="node">
<title>python_app_yml</title>
<polygon fill="none" stroke="black" points="583,-36 480,-36 480,0 583,0 583,-36"/>
<text text-anchor="middle" x="531.5" y="-12.95" font-family="Times,serif" font-size="14.00">python&#45;app.yml</text>
</g>
<!-- workflows&#45;&gt;python_app_yml -->
<g id="edge5" class="edge">
<title>workflows&#45;&gt;python_app_yml</title>
<path fill="none" stroke="black" d="M531.5,-71.7C531.5,-64.41 531.5,-55.73 531.5,-47.54"/>
<polygon fill="black" stroke="black" points="535,-47.62 531.5,-37.62 528,-47.62 535,-47.62"/>
</g>
<!-- qodana_code_quality_yml -->
<g id="node8" class="node">
<title>qodana_code_quality_yml</title>
<polygon fill="none" stroke="black" points="757.62,-36 601.38,-36 601.38,0 757.62,0 757.62,-36"/>
<text text-anchor="middle" x="679.5" y="-12.95" font-family="Times,serif" font-size="14.00">qodana_code_quality.yml</text>
</g>
<!-- workflows&#45;&gt;qodana_code_quality_yml -->
<g id="edge6" class="edge">
<title>workflows&#45;&gt;qodana_code_quality_yml</title>
<path fill="none" stroke="black" d="M568.46,-71.52C587.87,-62.34 611.86,-50.99 632.57,-41.2"/>
<polygon fill="black" stroke="black" points="633.84,-44.47 641.38,-37.03 630.85,-38.14 633.84,-44.47"/>
</g>
<!-- _gitignore -->
<g id="node9" class="node">
<title>_gitignore</title>
<polygon fill="none" stroke="black" points="2720.75,-252 2652.25,-252 2652.25,-216 2720.75,-216 2720.75,-252"/>
<text text-anchor="middle" x="2686.5" y="-228.95" font-family="Times,serif" font-size="14.00">.gitignore</text>
</g>
<!-- Projects_session_sql -->
<g id="node10" class="node">
<title>Projects_session_sql</title>
<polygon fill="none" stroke="black" points="3070.38,-252 2948.62,-252 2948.62,-216 3070.38,-216 3070.38,-252"/>
<text text-anchor="middle" x="3009.5" y="-228.95" font-family="Times,serif" font-size="14.00">Projects.session.sql</text>
</g>
<!-- app -->
<g id="node11" class="node">
<title>app</title>
<polygon fill="none" stroke="black" points="2025.5,-252 1971.5,-252 1971.5,-216 2025.5,-216 2025.5,-252"/>
<text text-anchor="middle" x="1998.5" y="-228.95" font-family="Times,serif" font-size="14.00">app</text>
</g>
<!-- app&#45;&gt;_DS_Store -->
<g id="edge7" class="edge">
<title>app&#45;&gt;_DS_Store</title>
<path fill="none" stroke="black" d="M1971.07,-232.7C1842.09,-231.08 1295.31,-221.82 1130.5,-180 1074.75,-165.85 1015.44,-135.51 977.97,-114.21"/>
<polygon fill="black" stroke="black" points="979.72,-111.18 969.31,-109.22 976.22,-117.24 979.72,-111.18"/>
</g>
<!-- __init___py -->
<g id="node12" class="node">
<title>__init___py</title>
<polygon fill="none" stroke="black" points="2195.62,-36 2117.38,-36 2117.38,0 2195.62,0 2195.62,-36"/>
<text text-anchor="middle" x="2156.5" y="-12.95" font-family="Times,serif" font-size="14.00">__init__.py</text>
</g>
<!-- app&#45;&gt;__init___py -->
<g id="edge8" class="edge">
<title>app&#45;&gt;__init___py</title>
<path fill="none" stroke="black" d="M2001.59,-215.61C2008.46,-178.68 2025.83,-94 2044.5,-72 2060.45,-53.2 2084.58,-40.61 2106.35,-32.43"/>
<polygon fill="black" stroke="black" points="2107.43,-35.77 2115.71,-29.16 2105.12,-29.16 2107.43,-35.77"/>
</g>
<!-- charts -->
<g id="node13" class="node">
<title>charts</title>
<polygon fill="none" stroke="black" points="2997.5,-180 2943.5,-180 2943.5,-144 2997.5,-144 2997.5,-180"/>
<text text-anchor="middle" x="2970.5" y="-156.95" font-family="Times,serif" font-size="14.00">charts</text>
</g>
<!-- app&#45;&gt;charts -->
<g id="edge9" class="edge">
<title>app&#45;&gt;charts</title>
<path fill="none" stroke="black" d="M2025.82,-229.58C2056.4,-225.84 2107.44,-219.87 2151.5,-216 2306.14,-202.41 2790.89,-173.56 2931.75,-165.27"/>
<polygon fill="black" stroke="black" points="2931.89,-168.77 2941.66,-164.69 2931.48,-161.78 2931.89,-168.77"/>
</g>
<!-- config_py -->
<g id="node17" class="node">
<title>config_py</title>
<polygon fill="none" stroke="black" points="2438.38,-180 2370.62,-180 2370.62,-144 2438.38,-144 2438.38,-180"/>
<text text-anchor="middle" x="2404.5" y="-156.95" font-family="Times,serif" font-size="14.00">config.py</text>
</g>
<!-- app&#45;&gt;config_py -->
<g id="edge14" class="edge">
<title>app&#45;&gt;config_py</title>
<path fill="none" stroke="black" d="M2025.78,-229.85C2095.4,-221.68 2279.29,-199.27 2359.43,-180.08"/>
<polygon fill="black" stroke="black" points="2360.18,-183.5 2369.01,-177.65 2358.45,-176.72 2360.18,-183.5"/>
</g>
<!-- extensions -->
<g id="node18" class="node">
<title>extensions</title>
<polygon fill="none" stroke="black" points="1902,-180 1829,-180 1829,-144 1902,-144 1902,-180"/>
<text text-anchor="middle" x="1865.5" y="-156.95" font-family="Times,serif" font-size="14.00">extensions</text>
</g>
<!-- app&#45;&gt;extensions -->
<g id="edge15" class="edge">
<title>app&#45;&gt;extensions</title>
<path fill="none" stroke="black" d="M1971.26,-218.67C1953.19,-209.15 1929.09,-196.47 1908.46,-185.61"/>
<polygon fill="black" stroke="black" points="1910.16,-182.55 1899.68,-180.99 1906.9,-188.75 1910.16,-182.55"/>
</g>
<!-- forms -->
<g id="node20" class="node">
<title>forms</title>
<polygon fill="none" stroke="black" points="1997.5,-180 1943.5,-180 1943.5,-144 1997.5,-144 1997.5,-180"/>
<text text-anchor="middle" x="1970.5" y="-156.95" font-family="Times,serif" font-size="14.00">forms</text>
</g>
<!-- app&#45;&gt;forms -->
<g id="edge18" class="edge">
<title>app&#45;&gt;forms</title>
<path fill="none" stroke="black" d="M1991.58,-215.7C1988.56,-208.15 1984.95,-199.12 1981.57,-190.68"/>
<polygon fill="black" stroke="black" points="1984.87,-189.49 1977.9,-181.51 1978.37,-192.09 1984.87,-189.49"/>
</g>
<!-- models -->
<g id="node22" class="node">
<title>models</title>
<polygon fill="none" stroke="black" points="1121.38,-108 1065.62,-108 1065.62,-72 1121.38,-72 1121.38,-108"/>
<text text-anchor="middle" x="1093.5" y="-84.95" font-family="Times,serif" font-size="14.00">models</text>
</g>
<!-- app&#45;&gt;models -->
<g id="edge21" class="edge">
<title>app&#45;&gt;models</title>
<path fill="none" stroke="black" d="M1971.19,-232.52C1884.29,-230.61 1606.72,-221.45 1381.5,-180 1327.24,-170.01 1198.57,-132.74 1132.11,-108.69"/>
<polygon fill="black" stroke="black" points="1133.62,-105.52 1123.03,-105.33 1131.19,-112.09 1133.62,-105.52"/>
</g>
<!-- routes -->
<g id="node24" class="node">
<title>routes</title>
<polygon fill="none" stroke="black" points="2181.5,-180 2127.5,-180 2127.5,-144 2181.5,-144 2181.5,-180"/>
<text text-anchor="middle" x="2154.5" y="-156.95" font-family="Times,serif" font-size="14.00">routes</text>
</g>
<!-- app&#45;&gt;routes -->
<g id="edge24" class="edge">
<title>app&#45;&gt;routes</title>
<path fill="none" stroke="black" d="M2025.67,-220.81C2050.91,-209.48 2088.71,-192.52 2116.85,-179.89"/>
<polygon fill="black" stroke="black" points="2118.04,-183.2 2125.73,-175.91 2115.18,-176.81 2118.04,-183.2"/>
</g>
<!-- static -->
<g id="node27" class="node">
<title>static</title>
<polygon fill="none" stroke="black" points="2352.5,-180 2298.5,-180 2298.5,-144 2352.5,-144 2352.5,-180"/>
<text text-anchor="middle" x="2325.5" y="-156.95" font-family="Times,serif" font-size="14.00">static</text>
</g>
<!-- app&#45;&gt;static -->
<g id="edge28" class="edge">
<title>app&#45;&gt;static</title>
<path fill="none" stroke="black" d="M2025.82,-227.15C2084,-214.7 2220.3,-185.52 2287.15,-171.21"/>
<polygon fill="black" stroke="black" points="2287.5,-174.71 2296.55,-169.2 2286.04,-167.87 2287.5,-174.71"/>
</g>
<!-- tasks -->
<g id="node30" class="node">
<title>tasks</title>
<polygon fill="none" stroke="black" points="1047.5,-108 993.5,-108 993.5,-72 1047.5,-72 1047.5,-108"/>
<text text-anchor="middle" x="1020.5" y="-84.95" font-family="Times,serif" font-size="14.00">tasks</text>
</g>
<!-- app&#45;&gt;tasks -->
<g id="edge32" class="edge">
<title>app&#45;&gt;tasks</title>
<path fill="none" stroke="black" d="M1971.04,-232.21C1852.27,-228.63 1382.32,-212.64 1238.5,-180 1172.35,-164.99 1100.36,-132.04 1057.9,-110.72"/>
<polygon fill="black" stroke="black" points="1059.61,-107.66 1049.11,-106.25 1056.44,-113.91 1059.61,-107.66"/>
</g>
<!-- templates -->
<g id="node33" class="node">
<title>templates</title>
<polygon fill="none" stroke="black" points="1458.75,-180 1390.25,-180 1390.25,-144 1458.75,-144 1458.75,-180"/>
<text text-anchor="middle" x="1424.5" y="-156.95" font-family="Times,serif" font-size="14.00">templates</text>
</g>
<!-- app&#45;&gt;templates -->
<g id="edge37" class="edge">
<title>app&#45;&gt;templates</title>
<path fill="none" stroke="black" d="M1971.2,-229.67C1879.87,-218.53 1584.35,-182.49 1470.14,-168.57"/>
<polygon fill="black" stroke="black" points="1470.88,-165.13 1460.53,-167.39 1470.03,-172.08 1470.88,-165.13"/>
</g>
<!-- utils -->
<g id="node43" class="node">
<title>utils</title>
<polygon fill="none" stroke="black" points="2661.5,-180 2607.5,-180 2607.5,-144 2661.5,-144 2661.5,-180"/>
<text text-anchor="middle" x="2634.5" y="-156.95" font-family="Times,serif" font-size="14.00">utils</text>
</g>
<!-- app&#45;&gt;utils -->
<g id="edge49" class="edge">
<title>app&#45;&gt;utils</title>
<path fill="none" stroke="black" d="M2025.86,-229.95C2056.47,-226.54 2107.54,-220.85 2151.5,-216 2316.93,-197.73 2514.25,-176.14 2596.05,-167.2"/>
<polygon fill="black" stroke="black" points="2596.2,-170.71 2605.76,-166.14 2595.44,-163.75 2596.2,-170.71"/>
</g>
<!-- charts&#45;&gt;__init___py -->
<g id="edge10" class="edge">
<title>charts&#45;&gt;__init___py</title>
<path fill="none" stroke="black" d="M2943.14,-149.99C2920.97,-140.45 2889.44,-125.47 2864.5,-108 2845.44,-94.65 2847.76,-81.46 2826.5,-72 2715.79,-22.74 2343.71,-18.52 2207.23,-18.69"/>
<polygon fill="black" stroke="black" points="2207.42,-15.19 2197.43,-18.71 2207.44,-22.19 2207.42,-15.19"/>
</g>
<!-- burnup_chart_py -->
<g id="node14" class="node">
<title>burnup_chart_py</title>
<polygon fill="none" stroke="black" points="3453.12,-108 3347.88,-108 3347.88,-72 3453.12,-72 3453.12,-108"/>
<text text-anchor="middle" x="3400.5" y="-84.95" font-family="Times,serif" font-size="14.00">burnup_chart.py</text>
</g>
<!-- charts&#45;&gt;burnup_chart_py -->
<g id="edge11" class="edge">
<title>charts&#45;&gt;burnup_chart_py</title>
<path fill="none" stroke="black" d="M2997.65,-147.03C3000.59,-145.87 3003.57,-144.82 3006.5,-144 3145.87,-104.74 3190.51,-134.19 3336.39,-108.18"/>
<polygon fill="black" stroke="black" points="3336.84,-111.66 3346.04,-106.4 3335.57,-104.77 3336.84,-111.66"/>
</g>
<!-- contributor_breakdown_chart_py -->
<g id="node15" class="node">
<title>contributor_breakdown_chart_py</title>
<polygon fill="none" stroke="black" points="3067.38,-108 2873.62,-108 2873.62,-72 3067.38,-72 3067.38,-108"/>
<text text-anchor="middle" x="2970.5" y="-84.95" font-family="Times,serif" font-size="14.00">contributor_breakdown_chart.py</text>
</g>
<!-- charts&#45;&gt;contributor_breakdown_chart_py -->
<g id="edge12" class="edge">
<title>charts&#45;&gt;contributor_breakdown_chart_py</title>
<path fill="none" stroke="black" d="M2970.5,-143.7C2970.5,-136.41 2970.5,-127.73 2970.5,-119.54"/>
<polygon fill="black" stroke="black" points="2974,-119.62 2970.5,-109.62 2967,-119.62 2974,-119.62"/>
</g>
<!-- project_breakdown_chart_py -->
<g id="node16" class="node">
<title>project_breakdown_chart_py</title>
<polygon fill="none" stroke="black" points="3257.12,-108 3085.88,-108 3085.88,-72 3257.12,-72 3257.12,-108"/>
<text text-anchor="middle" x="3171.5" y="-84.95" font-family="Times,serif" font-size="14.00">project_breakdown_chart.py</text>
</g>
<!-- charts&#45;&gt;project_breakdown_chart_py -->
<g id="edge13" class="edge">
<title>charts&#45;&gt;project_breakdown_chart_py</title>
<path fill="none" stroke="black" d="M2997.86,-147.63C3000.75,-146.35 3003.67,-145.12 3006.5,-144 3036.65,-132.1 3070.65,-120.83 3099.91,-111.76"/>
<polygon fill="black" stroke="black" points="3100.9,-115.12 3109.43,-108.84 3098.85,-108.43 3100.9,-115.12"/>
</g>
<!-- extensions&#45;&gt;__init___py -->
<g id="edge16" class="edge">
<title>extensions&#45;&gt;__init___py</title>
<path fill="none" stroke="black" d="M1863.99,-143.63C1863.27,-123.5 1865.45,-90.71 1884.5,-72 1915.22,-41.82 2036.01,-27.93 2105.86,-22.31"/>
<polygon fill="black" stroke="black" points="2105.81,-25.82 2115.51,-21.56 2105.27,-18.84 2105.81,-25.82"/>
</g>
<!-- db_py -->
<g id="node19" class="node">
<title>db_py</title>
<polygon fill="none" stroke="black" points="1837.5,-108 1783.5,-108 1783.5,-72 1837.5,-72 1837.5,-108"/>
<text text-anchor="middle" x="1810.5" y="-84.95" font-family="Times,serif" font-size="14.00">db.py</text>
</g>
<!-- extensions&#45;&gt;db_py -->
<g id="edge17" class="edge">
<title>extensions&#45;&gt;db_py</title>
<path fill="none" stroke="black" d="M1851.9,-143.7C1845.58,-135.64 1837.92,-125.89 1830.91,-116.98"/>
<polygon fill="black" stroke="black" points="1833.8,-115 1824.87,-109.29 1828.3,-119.32 1833.8,-115"/>
</g>
<!-- forms&#45;&gt;__init___py -->
<g id="edge19" class="edge">
<title>forms&#45;&gt;__init___py</title>
<path fill="none" stroke="black" d="M1974.25,-143.55C1979.4,-123.65 1990.49,-91.37 2011.5,-72 2037.65,-47.89 2075.65,-34.54 2106.19,-27.26"/>
<polygon fill="black" stroke="black" points="2106.59,-30.76 2115.59,-25.18 2105.07,-23.93 2106.59,-30.76"/>
</g>
<!-- forms_py -->
<g id="node21" class="node">
<title>forms_py</title>
<polygon fill="none" stroke="black" points="1959.25,-108 1893.75,-108 1893.75,-72 1959.25,-72 1959.25,-108"/>
<text text-anchor="middle" x="1926.5" y="-84.95" font-family="Times,serif" font-size="14.00">forms.py</text>
</g>
<!-- forms&#45;&gt;forms_py -->
<g id="edge20" class="edge">
<title>forms&#45;&gt;forms_py</title>
<path fill="none" stroke="black" d="M1959.62,-143.7C1954.72,-135.9 1948.82,-126.51 1943.36,-117.83"/>
<polygon fill="black" stroke="black" points="1946.34,-115.99 1938.06,-109.39 1940.42,-119.71 1946.34,-115.99"/>
</g>
<!-- models&#45;&gt;__init___py -->
<g id="edge22" class="edge">
<title>models&#45;&gt;__init___py</title>
<path fill="none" stroke="black" d="M1121.81,-74.41C1124.37,-73.47 1126.95,-72.64 1129.5,-72 1317.47,-24.73 1925.34,-19.52 2105.64,-19.03"/>
<polygon fill="black" stroke="black" points="2105.63,-22.53 2115.62,-19 2105.61,-15.53 2105.63,-22.53"/>
</g>
<!-- models_py -->
<g id="node23" class="node">
<title>models_py</title>
<polygon fill="none" stroke="black" points="1186,-36 1113,-36 1113,0 1186,0 1186,-36"/>
<text text-anchor="middle" x="1149.5" y="-12.95" font-family="Times,serif" font-size="14.00">models.py</text>
</g>
<!-- models&#45;&gt;models_py -->
<g id="edge23" class="edge">
<title>models&#45;&gt;models_py</title>
<path fill="none" stroke="black" d="M1107.34,-71.7C1113.79,-63.64 1121.58,-53.89 1128.71,-44.98"/>
<polygon fill="black" stroke="black" points="1131.36,-47.28 1134.87,-37.29 1125.89,-42.91 1131.36,-47.28"/>
</g>
<!-- routes&#45;&gt;__init___py -->
<g id="edge25" class="edge">
<title>routes&#45;&gt;__init___py</title>
<path fill="none" stroke="black" d="M2181.88,-156.81C2209.13,-151.03 2249.54,-137.72 2268.5,-108 2277.1,-94.51 2277.06,-85.52 2268.5,-72 2254.84,-50.43 2229.77,-37.46 2206.81,-29.77"/>
<polygon fill="black" stroke="black" points="2208.14,-26.51 2197.55,-26.93 2206.09,-33.21 2208.14,-26.51"/>
</g>
<!-- api_routes_py -->
<g id="node25" class="node">
<title>api_routes_py</title>
<polygon fill="none" stroke="black" points="2143.25,-108 2053.75,-108 2053.75,-72 2143.25,-72 2143.25,-108"/>
<text text-anchor="middle" x="2098.5" y="-84.95" font-family="Times,serif" font-size="14.00">api_routes.py</text>
</g>
<!-- routes&#45;&gt;api_routes_py -->
<g id="edge26" class="edge">
<title>routes&#45;&gt;api_routes_py</title>
<path fill="none" stroke="black" d="M2140.66,-143.7C2134.21,-135.64 2126.42,-125.89 2119.29,-116.98"/>
<polygon fill="black" stroke="black" points="2122.11,-114.91 2113.13,-109.29 2116.64,-119.28 2122.11,-114.91"/>
</g>
<!-- page_routes_py -->
<g id="node26" class="node">
<title>page_routes_py</title>
<polygon fill="none" stroke="black" points="2259.75,-108 2161.25,-108 2161.25,-72 2259.75,-72 2259.75,-108"/>
<text text-anchor="middle" x="2210.5" y="-84.95" font-family="Times,serif" font-size="14.00">page_routes.py</text>
</g>
<!-- routes&#45;&gt;page_routes_py -->
<g id="edge27" class="edge">
<title>routes&#45;&gt;page_routes_py</title>
<path fill="none" stroke="black" d="M2168.34,-143.7C2174.79,-135.64 2182.58,-125.89 2189.71,-116.98"/>
<polygon fill="black" stroke="black" points="2192.36,-119.28 2195.87,-109.29 2186.89,-114.91 2192.36,-119.28"/>
</g>
<!-- static&#45;&gt;__init___py -->
<g id="edge29" class="edge">
<title>static&#45;&gt;__init___py</title>
<path fill="none" stroke="black" d="M2321.82,-143.7C2316.79,-123.94 2305.95,-91.79 2285.5,-72 2263.96,-51.15 2233.08,-38.07 2206.93,-30.12"/>
<polygon fill="black" stroke="black" points="2208.09,-26.81 2197.52,-27.44 2206.17,-33.55 2208.09,-26.81"/>
</g>
<!-- custom_css -->
<g id="node28" class="node">
<title>custom_css</title>
<polygon fill="none" stroke="black" points="2429.5,-108 2353.5,-108 2353.5,-72 2429.5,-72 2429.5,-108"/>
<text text-anchor="middle" x="2391.5" y="-84.95" font-family="Times,serif" font-size="14.00">custom.css</text>
</g>
<!-- static&#45;&gt;custom_css -->
<g id="edge30" class="edge">
<title>static&#45;&gt;custom_css</title>
<path fill="none" stroke="black" d="M2341.81,-143.7C2349.57,-135.47 2358.99,-125.48 2367.53,-116.42"/>
<polygon fill="black" stroke="black" points="2370.02,-118.88 2374.33,-109.21 2364.93,-114.08 2370.02,-118.88"/>
</g>
<!-- custom_js -->
<g id="node29" class="node">
<title>custom_js</title>
<polygon fill="none" stroke="black" points="2515.75,-108 2447.25,-108 2447.25,-72 2515.75,-72 2515.75,-108"/>
<text text-anchor="middle" x="2481.5" y="-84.95" font-family="Times,serif" font-size="14.00">custom.js</text>
</g>
<!-- static&#45;&gt;custom_js -->
<g id="edge31" class="edge">
<title>static&#45;&gt;custom_js</title>
<path fill="none" stroke="black" d="M2352.98,-147.93C2355.86,-146.6 2358.73,-145.26 2361.5,-144 2386.27,-132.68 2414.08,-120.38 2436.68,-110.47"/>
<polygon fill="black" stroke="black" points="2437.85,-113.78 2445.61,-106.57 2435.05,-107.37 2437.85,-113.78"/>
</g>
<!-- tasks&#45;&gt;__init___py -->
<g id="edge33" class="edge">
<title>tasks&#45;&gt;__init___py</title>
<path fill="none" stroke="black" d="M1047.6,-74.85C1050.55,-73.72 1053.55,-72.74 1056.5,-72 1259.1,-21.42 1916.85,-18.57 2105.5,-18.82"/>
<polygon fill="black" stroke="black" points="2105.46,-22.32 2115.46,-18.84 2105.47,-15.32 2105.46,-22.32"/>
</g>
<!-- tasks&#45;&gt;models_py -->
<g id="edge34" class="edge">
<title>tasks&#45;&gt;models_py</title>
<path fill="none" stroke="black" d="M1047.86,-74.15C1065.24,-64.72 1088.08,-52.33 1107.71,-41.68"/>
<polygon fill="black" stroke="black" points="1109.18,-44.86 1116.3,-37.01 1105.84,-38.71 1109.18,-44.86"/>
</g>
<!-- routes_py -->
<g id="node31" class="node">
<title>routes_py</title>
<polygon fill="none" stroke="black" points="1094.62,-36 1028.38,-36 1028.38,0 1094.62,0 1094.62,-36"/>
<text text-anchor="middle" x="1061.5" y="-12.95" font-family="Times,serif" font-size="14.00">routes.py</text>
</g>
<!-- tasks&#45;&gt;routes_py -->
<g id="edge35" class="edge">
<title>tasks&#45;&gt;routes_py</title>
<path fill="none" stroke="black" d="M1030.63,-71.7C1035.2,-63.9 1040.7,-54.51 1045.79,-45.83"/>
<polygon fill="black" stroke="black" points="1048.68,-47.81 1050.72,-37.41 1042.64,-44.27 1048.68,-47.81"/>
</g>
<!-- utils_py -->
<g id="node32" class="node">
<title>utils_py</title>
<polygon fill="none" stroke="black" points="831.75,-36 775.25,-36 775.25,0 831.75,0 831.75,-36"/>
<text text-anchor="middle" x="803.5" y="-12.95" font-family="Times,serif" font-size="14.00">utils.py</text>
</g>
<!-- tasks&#45;&gt;utils_py -->
<g id="edge36" class="edge">
<title>tasks&#45;&gt;utils_py</title>
<path fill="none" stroke="black" d="M993.22,-75.44C990.31,-74.2 987.36,-73.03 984.5,-72 926.05,-51.07 905.59,-56.75 842.81,-36.06"/>
<polygon fill="black" stroke="black" points="843.95,-32.75 833.35,-32.84 841.69,-39.38 843.95,-32.75"/>
</g>
<!-- details_html -->
<g id="node41" class="node">
<title>details_html</title>
<polygon fill="none" stroke="black" points="930.75,-36 850.25,-36 850.25,0 930.75,0 930.75,-36"/>
<text text-anchor="middle" x="890.5" y="-12.95" font-family="Times,serif" font-size="14.00">details.html</text>
</g>
<!-- tasks&#45;&gt;details_html -->
<g id="edge47" class="edge">
<title>tasks&#45;&gt;details_html</title>
<path fill="none" stroke="black" d="M993.25,-74.33C975.75,-64.9 952.66,-52.47 932.81,-41.78"/>
<polygon fill="black" stroke="black" points="934.56,-38.75 924.1,-37.09 931.25,-44.92 934.56,-38.75"/>
</g>
<!-- list_html -->
<g id="node42" class="node">
<title>list_html</title>
<polygon fill="none" stroke="black" points="1010.38,-36 948.62,-36 948.62,0 1010.38,0 1010.38,-36"/>
<text text-anchor="middle" x="979.5" y="-12.95" font-family="Times,serif" font-size="14.00">list.html</text>
</g>
<!-- tasks&#45;&gt;list_html -->
<g id="edge48" class="edge">
<title>tasks&#45;&gt;list_html</title>
<path fill="none" stroke="black" d="M1010.37,-71.7C1005.8,-63.9 1000.3,-54.51 995.21,-45.83"/>
<polygon fill="black" stroke="black" points="998.36,-44.27 990.28,-37.41 992.32,-47.81 998.36,-44.27"/>
</g>
<!-- templates&#45;&gt;_DS_Store -->
<g id="edge38" class="edge">
<title>templates&#45;&gt;_DS_Store</title>
<path fill="none" stroke="black" d="M1389.76,-159.66C1316.51,-156.23 1140.94,-144.84 987.14,-108.33"/>
<polygon fill="black" stroke="black" points="988.12,-104.96 977.58,-106.01 986.47,-111.77 988.12,-104.96"/>
</g>
<!-- templates&#45;&gt;tasks -->
<g id="edge46" class="edge">
<title>templates&#45;&gt;tasks</title>
<path fill="none" stroke="black" d="M1389.77,-159.44C1325.48,-155.82 1183.82,-144.45 1058.59,-108.11"/>
<polygon fill="black" stroke="black" points="1059.72,-104.79 1049.13,-105.3 1057.72,-111.5 1059.72,-104.79"/>
</g>
<!-- base_html -->
<g id="node34" class="node">
<title>base_html</title>
<polygon fill="none" stroke="black" points="1553.12,-108 1483.88,-108 1483.88,-72 1553.12,-72 1553.12,-108"/>
<text text-anchor="middle" x="1518.5" y="-84.95" font-family="Times,serif" font-size="14.00">base.html</text>
</g>
<!-- templates&#45;&gt;base_html -->
<g id="edge39" class="edge">
<title>templates&#45;&gt;base_html</title>
<path fill="none" stroke="black" d="M1447.74,-143.7C1459.37,-135.03 1473.65,-124.4 1486.32,-114.96"/>
<polygon fill="black" stroke="black" points="1488.06,-118.03 1493.99,-109.25 1483.88,-112.42 1488.06,-118.03"/>
</g>
<!-- dashboard_html -->
<g id="node35" class="node">
<title>dashboard_html</title>
<polygon fill="none" stroke="black" points="1671.88,-108 1571.12,-108 1571.12,-72 1671.88,-72 1671.88,-108"/>
<text text-anchor="middle" x="1621.5" y="-84.95" font-family="Times,serif" font-size="14.00">dashboard.html</text>
</g>
<!-- templates&#45;&gt;dashboard_html -->
<g id="edge40" class="edge">
<title>templates&#45;&gt;dashboard_html</title>
<path fill="none" stroke="black" d="M1458.81,-148.81C1487.16,-138.73 1528.08,-124.2 1561.78,-112.22"/>
<polygon fill="black" stroke="black" points="1562.77,-115.58 1571.02,-108.94 1560.43,-108.99 1562.77,-115.58"/>
</g>
<!-- includes -->
<g id="node36" class="node">
<title>includes</title>
<polygon fill="none" stroke="black" points="1200,-108 1139,-108 1139,-72 1200,-72 1200,-108"/>
<text text-anchor="middle" x="1169.5" y="-84.95" font-family="Times,serif" font-size="14.00">includes</text>
</g>
<!-- templates&#45;&gt;includes -->
<g id="edge41" class="edge">
<title>templates&#45;&gt;includes</title>
<path fill="none" stroke="black" d="M1389.94,-154.42C1349.04,-146.22 1278.83,-130.86 1211.22,-108.66"/>
<polygon fill="black" stroke="black" points="1212.42,-105.37 1201.83,-105.51 1210.2,-112.01 1212.42,-105.37"/>
</g>
<!-- index_html -->
<g id="node38" class="node">
<title>index_html</title>
<polygon fill="none" stroke="black" points="1765.12,-108 1689.88,-108 1689.88,-72 1765.12,-72 1765.12,-108"/>
<text text-anchor="middle" x="1727.5" y="-84.95" font-family="Times,serif" font-size="14.00">index.html</text>
</g>
<!-- templates&#45;&gt;index_html -->
<g id="edge43" class="edge">
<title>templates&#45;&gt;index_html</title>
<path fill="none" stroke="black" d="M1459.25,-155.43C1506.75,-147.47 1594.75,-131.46 1678.45,-108.36"/>
<polygon fill="black" stroke="black" points="1679.29,-111.76 1687.97,-105.69 1677.4,-105.02 1679.29,-111.76"/>
</g>
<!-- progress_overview_html -->
<g id="node39" class="node">
<title>progress_overview_html</title>
<polygon fill="none" stroke="black" points="1365.12,-108 1217.88,-108 1217.88,-72 1365.12,-72 1365.12,-108"/>
<text text-anchor="middle" x="1291.5" y="-84.95" font-family="Times,serif" font-size="14.00">progress_overview.html</text>
</g>
<!-- templates&#45;&gt;progress_overview_html -->
<g id="edge44" class="edge">
<title>templates&#45;&gt;progress_overview_html</title>
<path fill="none" stroke="black" d="M1391.28,-143.52C1374.01,-134.43 1352.71,-123.22 1334.23,-113.49"/>
<polygon fill="black" stroke="black" points="1336.11,-110.53 1325.63,-108.97 1332.85,-116.72 1336.11,-110.53"/>
</g>
<!-- project_html -->
<g id="node40" class="node">
<title>project_html</title>
<polygon fill="none" stroke="black" points="1465.88,-108 1383.12,-108 1383.12,-72 1465.88,-72 1465.88,-108"/>
<text text-anchor="middle" x="1424.5" y="-84.95" font-family="Times,serif" font-size="14.00">project.html</text>
</g>
<!-- templates&#45;&gt;project_html -->
<g id="edge45" class="edge">
<title>templates&#45;&gt;project_html</title>
<path fill="none" stroke="black" d="M1424.5,-143.7C1424.5,-136.41 1424.5,-127.73 1424.5,-119.54"/>
<polygon fill="black" stroke="black" points="1428,-119.62 1424.5,-109.62 1421,-119.62 1428,-119.62"/>
</g>
<!-- macros_html -->
<g id="node37" class="node">
<title>macros_html</title>
<polygon fill="none" stroke="black" points="1289,-36 1204,-36 1204,0 1289,0 1289,-36"/>
<text text-anchor="middle" x="1246.5" y="-12.95" font-family="Times,serif" font-size="14.00">macros.html</text>
</g>
<!-- includes&#45;&gt;macros_html -->
<g id="edge42" class="edge">
<title>includes&#45;&gt;macros_html</title>
<path fill="none" stroke="black" d="M1188.53,-71.7C1197.7,-63.37 1208.85,-53.22 1218.93,-44.07"/>
<polygon fill="black" stroke="black" points="1221.25,-46.68 1226.3,-37.37 1216.54,-41.5 1221.25,-46.68"/>
</g>
<!-- utils&#45;&gt;__init___py -->
<g id="edge50" class="edge">
<title>utils&#45;&gt;__init___py</title>
<path fill="none" stroke="black" d="M2647.43,-143.76C2660.53,-124.07 2676.49,-91.98 2658.5,-72 2628.65,-38.83 2328.52,-24.89 2207.09,-20.58"/>
<polygon fill="black" stroke="black" points="2207.54,-17.09 2197.43,-20.24 2207.3,-24.09 2207.54,-17.09"/>
</g>
<!-- common_utils_py -->
<g id="node44" class="node">
<title>common_utils_py</title>
<polygon fill="none" stroke="black" points="2817.5,-108 2705.5,-108 2705.5,-72 2817.5,-72 2817.5,-108"/>
<text text-anchor="middle" x="2761.5" y="-84.95" font-family="Times,serif" font-size="14.00">common_utils.py</text>
</g>
<!-- utils&#45;&gt;common_utils_py -->
<g id="edge51" class="edge">
<title>utils&#45;&gt;common_utils_py</title>
<path fill="none" stroke="black" d="M2661.74,-145.98C2678.67,-136.65 2700.77,-124.47 2719.86,-113.95"/>
<polygon fill="black" stroke="black" points="2721.43,-117.08 2728.49,-109.19 2718.05,-110.95 2721.43,-117.08"/>
</g>
<!-- logging_config_py -->
<g id="node45" class="node">
<title>logging_config_py</title>
<polygon fill="none" stroke="black" points="2649.38,-108 2533.62,-108 2533.62,-72 2649.38,-72 2649.38,-108"/>
<text text-anchor="middle" x="2591.5" y="-84.95" font-family="Times,serif" font-size="14.00">logging_config.py</text>
</g>
<!-- utils&#45;&gt;logging_config_py -->
<g id="edge52" class="edge">
<title>utils&#45;&gt;logging_config_py</title>
<path fill="none" stroke="black" d="M2623.87,-143.7C2619.08,-135.9 2613.31,-126.51 2607.98,-117.83"/>
<polygon fill="black" stroke="black" points="2611.02,-116.08 2602.8,-109.39 2605.05,-119.75 2611.02,-116.08"/>
</g>
<!-- app_log -->
<g id="node46" class="node">
<title>app_log</title>
<polygon fill="none" stroke="black" points="3071.75,-180 3015.25,-180 3015.25,-144 3071.75,-144 3071.75,-180"/>
<text text-anchor="middle" x="3043.5" y="-156.95" font-family="Times,serif" font-size="14.00">app.log</text>
</g>
<!-- error_log -->
<g id="node47" class="node">
<title>error_log</title>
<polygon fill="none" stroke="black" points="3340.75,-252 3278.25,-252 3278.25,-216 3340.75,-216 3340.75,-252"/>
<text text-anchor="middle" x="3309.5" y="-228.95" font-family="Times,serif" font-size="14.00">error.log</text>
</g>
<!-- init_db_py -->
<g id="node48" class="node">
<title>init_db_py</title>
<polygon fill="none" stroke="black" points="3528.25,-252 3456.75,-252 3456.75,-216 3528.25,-216 3528.25,-252"/>
<text text-anchor="middle" x="3492.5" y="-228.95" font-family="Times,serif" font-size="14.00">init_db.py</text>
</g>
<!-- logfile -->
<g id="node49" class="node">
<title>logfile</title>
<polygon fill="none" stroke="black" points="3649.5,-252 3595.5,-252 3595.5,-216 3649.5,-216 3649.5,-252"/>
<text text-anchor="middle" x="3622.5" y="-228.95" font-family="Times,serif" font-size="14.00">logfile</text>
</g>
<!-- logs -->
<g id="node50" class="node">
<title>logs</title>
<polygon fill="none" stroke="black" points="3247.5,-252 3193.5,-252 3193.5,-216 3247.5,-216 3247.5,-252"/>
<text text-anchor="middle" x="3220.5" y="-228.95" font-family="Times,serif" font-size="14.00">logs</text>
</g>
<!-- logs&#45;&gt;app_log -->
<g id="edge53" class="edge">
<title>logs&#45;&gt;app_log</title>
<path fill="none" stroke="black" d="M3193.15,-223.09C3167.08,-213.53 3126.52,-198.37 3082.66,-180.37"/>
<polygon fill="black" stroke="black" points="3084.04,-177.15 3073.46,-176.56 3081.36,-183.62 3084.04,-177.15"/>
</g>
<!-- app_log_1 -->
<g id="node51" class="node">
<title>app_log_1</title>
<polygon fill="none" stroke="black" points="3157,-180 3090,-180 3090,-144 3157,-144 3157,-180"/>
<text text-anchor="middle" x="3123.5" y="-156.95" font-family="Times,serif" font-size="14.00">app.log.1</text>
</g>
<!-- logs&#45;&gt;app_log_1 -->
<g id="edge54" class="edge">
<title>logs&#45;&gt;app_log_1</title>
<path fill="none" stroke="black" d="M3196.52,-215.7C3184.51,-207.03 3169.78,-196.4 3156.71,-186.96"/>
<polygon fill="black" stroke="black" points="3158.92,-184.25 3148.77,-181.23 3154.83,-189.92 3158.92,-184.25"/>
</g>
<!-- app_log_2 -->
<g id="node52" class="node">
<title>app_log_2</title>
<polygon fill="none" stroke="black" points="3242,-180 3175,-180 3175,-144 3242,-144 3242,-180"/>
<text text-anchor="middle" x="3208.5" y="-156.95" font-family="Times,serif" font-size="14.00">app.log.2</text>
</g>
<!-- logs&#45;&gt;app_log_2 -->
<g id="edge55" class="edge">
<title>logs&#45;&gt;app_log_2</title>
<path fill="none" stroke="black" d="M3217.53,-215.7C3216.27,-208.32 3214.76,-199.52 3213.34,-191.25"/>
<polygon fill="black" stroke="black" points="3216.83,-190.86 3211.69,-181.6 3209.93,-192.04 3216.83,-190.86"/>
</g>
<!-- app_log_3 -->
<g id="node53" class="node">
<title>app_log_3</title>
<polygon fill="none" stroke="black" points="3327,-180 3260,-180 3260,-144 3327,-144 3327,-180"/>
<text text-anchor="middle" x="3293.5" y="-156.95" font-family="Times,serif" font-size="14.00">app.log.3</text>
</g>
<!-- logs&#45;&gt;app_log_3 -->
<g id="edge56" class="edge">
<title>logs&#45;&gt;app_log_3</title>
<path fill="none" stroke="black" d="M3238.54,-215.7C3247.23,-207.37 3257.81,-197.22 3267.36,-188.07"/>
<polygon fill="black" stroke="black" points="3269.52,-190.84 3274.32,-181.39 3264.68,-185.79 3269.52,-190.84"/>
</g>
<!-- app_log_4 -->
<g id="node54" class="node">
<title>app_log_4</title>
<polygon fill="none" stroke="black" points="3412,-180 3345,-180 3345,-144 3412,-144 3412,-180"/>
<text text-anchor="middle" x="3378.5" y="-156.95" font-family="Times,serif" font-size="14.00">app.log.4</text>
</g>
<!-- logs&#45;&gt;app_log_4 -->
<g id="edge57" class="edge">
<title>logs&#45;&gt;app_log_4</title>
<path fill="none" stroke="black" d="M3247.66,-220.97C3271.45,-210.43 3306.45,-194.92 3334.27,-182.59"/>
<polygon fill="black" stroke="black" points="3335.44,-185.91 3343.16,-178.66 3332.6,-179.51 3335.44,-185.91"/>
</g>
<!-- app_log_5 -->
<g id="node55" class="node">
<title>app_log_5</title>
<polygon fill="none" stroke="black" points="3497,-180 3430,-180 3430,-144 3497,-144 3497,-180"/>
<text text-anchor="middle" x="3463.5" y="-156.95" font-family="Times,serif" font-size="14.00">app.log.5</text>
</g>
<!-- logs&#45;&gt;app_log_5 -->
<g id="edge58" class="edge">
<title>logs&#45;&gt;app_log_5</title>
<path fill="none" stroke="black" d="M3247.81,-222.98C3254.84,-220.55 3262.41,-218.06 3269.5,-216 3332.77,-197.58 3353.28,-200.69 3418.82,-180.61"/>
<polygon fill="black" stroke="black" points="3419.8,-183.97 3428.29,-177.63 3417.7,-177.29 3419.8,-183.97"/>
</g>
<!-- migrations -->
<g id="node56" class="node">
<title>migrations</title>
<polygon fill="none" stroke="black" points="3766.75,-252 3692.25,-252 3692.25,-216 3766.75,-216 3766.75,-252"/>
<text text-anchor="middle" x="3729.5" y="-228.95" font-family="Times,serif" font-size="14.00">migrations</text>
</g>
<!-- README -->
<g id="node57" class="node">
<title>README</title>
<polygon fill="none" stroke="black" points="3588.38,-180 3514.62,-180 3514.62,-144 3588.38,-144 3588.38,-180"/>
<text text-anchor="middle" x="3551.5" y="-156.95" font-family="Times,serif" font-size="14.00">README</text>
</g>
<!-- migrations&#45;&gt;README -->
<g id="edge59" class="edge">
<title>migrations&#45;&gt;README</title>
<path fill="none" stroke="black" d="M3691.75,-218.15C3664.78,-207.55 3628.3,-193.2 3599.3,-181.8"/>
<polygon fill="black" stroke="black" points="3600.58,-178.54 3589.99,-178.14 3598.02,-185.05 3600.58,-178.54"/>
</g>
<!-- alembic_ini -->
<g id="node58" class="node">
<title>alembic_ini</title>
<polygon fill="none" stroke="black" points="3684.25,-180 3606.75,-180 3606.75,-144 3684.25,-144 3684.25,-180"/>
<text text-anchor="middle" x="3645.5" y="-156.95" font-family="Times,serif" font-size="14.00">alembic.ini</text>
</g>
<!-- migrations&#45;&gt;alembic_ini -->
<g id="edge60" class="edge">
<title>migrations&#45;&gt;alembic_ini</title>
<path fill="none" stroke="black" d="M3708.74,-215.7C3698.54,-207.2 3686.08,-196.81 3674.92,-187.51"/>
<polygon fill="black" stroke="black" points="3677.4,-185.03 3667.48,-181.32 3672.92,-190.41 3677.4,-185.03"/>
</g>
<!-- env_py -->
<g id="node59" class="node">
<title>env_py</title>
<polygon fill="none" stroke="black" points="3756.5,-180 3702.5,-180 3702.5,-144 3756.5,-144 3756.5,-180"/>
<text text-anchor="middle" x="3729.5" y="-156.95" font-family="Times,serif" font-size="14.00">env.py</text>
</g>
<!-- migrations&#45;&gt;env_py -->
<g id="edge61" class="edge">
<title>migrations&#45;&gt;env_py</title>
<path fill="none" stroke="black" d="M3729.5,-215.7C3729.5,-208.41 3729.5,-199.73 3729.5,-191.54"/>
<polygon fill="black" stroke="black" points="3733,-191.62 3729.5,-181.62 3726,-191.62 3733,-191.62"/>
</g>
<!-- script_py_mako -->
<g id="node60" class="node">
<title>script_py_mako</title>
<polygon fill="none" stroke="black" points="3872,-180 3775,-180 3775,-144 3872,-144 3872,-180"/>
<text text-anchor="middle" x="3823.5" y="-156.95" font-family="Times,serif" font-size="14.00">script.py.mako</text>
</g>
<!-- migrations&#45;&gt;script_py_mako -->
<g id="edge62" class="edge">
<title>migrations&#45;&gt;script_py_mako</title>
<path fill="none" stroke="black" d="M3752.74,-215.7C3764.37,-207.03 3778.65,-196.4 3791.32,-186.96"/>
<polygon fill="black" stroke="black" points="3793.06,-190.03 3798.99,-181.25 3788.88,-184.42 3793.06,-190.03"/>
</g>
<!-- versions -->
<g id="node61" class="node">
<title>versions</title>
<polygon fill="none" stroke="black" points="3951,-180 3890,-180 3890,-144 3951,-144 3951,-180"/>
<text text-anchor="middle" x="3920.5" y="-156.95" font-family="Times,serif" font-size="14.00">versions</text>
</g>
<!-- migrations&#45;&gt;versions -->
<g id="edge63" class="edge">
<title>migrations&#45;&gt;versions</title>
<path fill="none" stroke="black" d="M3767.19,-219.3C3770.34,-218.18 3773.47,-217.07 3776.5,-216 3819.85,-200.73 3833.65,-198.18 3879,-180.84"/>
<polygon fill="black" stroke="black" points="3880.04,-184.19 3888.1,-177.32 3877.51,-177.66 3880.04,-184.19"/>
</g>
<!-- 000000000001_py -->
<g id="node62" class="node">
<title>000000000001_py</title>
<polygon fill="none" stroke="black" points="3855.62,-108 3741.38,-108 3741.38,-72 3855.62,-72 3855.62,-108"/>
<text text-anchor="middle" x="3798.5" y="-84.95" font-family="Times,serif" font-size="14.00">000000000001.py</text>
</g>
<!-- versions&#45;&gt;000000000001_py -->
<g id="edge64" class="edge">
<title>versions&#45;&gt;000000000001_py</title>
<path fill="none" stroke="black" d="M3890.03,-143.52C3874.34,-134.51 3855.01,-123.42 3838.17,-113.76"/>
<polygon fill="black" stroke="black" points="3840.31,-110.95 3829.9,-109.01 3836.83,-117.03 3840.31,-110.95"/>
</g>
<!-- 9d14fd48e6cd_make_scope_nullable_in_project_model_py -->
<g id="node63" class="node">
<title>9d14fd48e6cd_make_scope_nullable_in_project_model_py</title>
<polygon fill="none" stroke="black" points="4211.38,-108 3873.62,-108 3873.62,-72 4211.38,-72 4211.38,-108"/>
<text text-anchor="middle" x="4042.5" y="-84.95" font-family="Times,serif" font-size="14.00">9d14fd48e6cd_make_scope_nullable_in_project_model.py</text>
</g>
<!-- versions&#45;&gt;9d14fd48e6cd_make_scope_nullable_in_project_model_py -->
<g id="edge65" class="edge">
<title>versions&#45;&gt;9d14fd48e6cd_make_scope_nullable_in_project_model_py</title>
<path fill="none" stroke="black" d="M3950.97,-143.52C3966.66,-134.51 3985.99,-123.42 4002.83,-113.76"/>
<polygon fill="black" stroke="black" points="4004.17,-117.03 4011.1,-109.01 4000.69,-110.95 4004.17,-117.03"/>
</g>
<!-- project_structure_tree_txt -->
<g id="node64" class="node">
<title>project_structure_tree_txt</title>
<polygon fill="none" stroke="black" points="3937.75,-252 3785.25,-252 3785.25,-216 3937.75,-216 3937.75,-252"/>
<text text-anchor="middle" x="3861.5" y="-228.95" font-family="Times,serif" font-size="14.00">project_structure_tree.txt</text>
</g>
<!-- project_structure_tree_20241215_144421_txt -->
<g id="node65" class="node">
<title>project_structure_tree_20241215_144421_txt</title>
<polygon fill="none" stroke="black" points="4216.75,-252 3956.25,-252 3956.25,-216 4216.75,-216 4216.75,-252"/>
<text text-anchor="middle" x="4086.5" y="-228.95" font-family="Times,serif" font-size="14.00">project_structure_tree_20241215_144421.txt</text>
</g>
<!-- qodana_sarif_json -->
<g id="node66" class="node">
<title>qodana_sarif_json</title>
<polygon fill="none" stroke="black" points="4344,-252 4235,-252 4235,-216 4344,-216 4344,-252"/>
<text text-anchor="middle" x="4289.5" y="-228.95" font-family="Times,serif" font-size="14.00">qodana.sarif.json</text>
</g>
<!-- qodana_yaml -->
<g id="node67" class="node">
<title>qodana_yaml</title>
<polygon fill="none" stroke="black" points="4448.75,-252 4362.25,-252 4362.25,-216 4448.75,-216 4448.75,-252"/>
<text text-anchor="middle" x="4405.5" y="-228.95" font-family="Times,serif" font-size="14.00">qodana.yaml</text>
</g>
<!-- requirements_txt -->
<g id="node68" class="node">
<title>requirements_txt</title>
<polygon fill="none" stroke="black" points="4572.12,-252 4466.88,-252 4466.88,-216 4572.12,-216 4572.12,-252"/>
<text text-anchor="middle" x="4519.5" y="-228.95" font-family="Times,serif" font-size="14.00">requirements.txt</text>
</g>
<!-- run_py -->
<g id="node69" class="node">
<title>run_py</title>
<polygon fill="none" stroke="black" points="4644.5,-252 4590.5,-252 4590.5,-216 4644.5,-216 4644.5,-252"/>
<text text-anchor="middle" x="4617.5" y="-228.95" font-family="Times,serif" font-size="14.00">run.py</text>
</g>
<!-- tests -->
<g id="node70" class="node">
<title>tests</title>
<polygon fill="none" stroke="black" points="3329.5,-108 3275.5,-108 3275.5,-72 3329.5,-72 3329.5,-108"/>
<text text-anchor="middle" x="3302.5" y="-84.95" font-family="Times,serif" font-size="14.00">tests</text>
</g>
<!-- tests&#45;&gt;__init___py -->
<g id="edge66" class="edge">
<title>tests&#45;&gt;__init___py</title>
<path fill="none" stroke="black" d="M3275.4,-74.85C3272.45,-73.72 3269.45,-72.74 3266.5,-72 3061.83,-20.95 2396.92,-18.44 2207.36,-18.8"/>
<polygon fill="black" stroke="black" points="2207.6,-15.3 2197.61,-18.82 2207.61,-22.3 2207.6,-15.3"/>
</g>
<!-- test_app_py -->
<g id="node71" class="node">
<title>test_app_py</title>
<polygon fill="none" stroke="black" points="3341.62,-36 3263.38,-36 3263.38,0 3341.62,0 3341.62,-36"/>
<text text-anchor="middle" x="3302.5" y="-12.95" font-family="Times,serif" font-size="14.00">test_app.py</text>
</g>
<!-- tests&#45;&gt;test_app_py -->
<g id="edge67" class="edge">
<title>tests&#45;&gt;test_app_py</title>
<path fill="none" stroke="black" d="M3302.5,-71.7C3302.5,-64.41 3302.5,-55.73 3302.5,-47.54"/>
<polygon fill="black" stroke="black" points="3306,-47.62 3302.5,-37.62 3299,-47.62 3306,-47.62"/>
</g>
<!-- workflow_requirements_txt -->
<g id="node72" class="node">
<title>workflow_requirements_txt</title>
<polygon fill="none" stroke="black" points="4824.62,-252 4662.38,-252 4662.38,-216 4824.62,-216 4824.62,-252"/>
<text text-anchor="middle" x="4743.5" y="-228.95" font-family="Times,serif" font-size="14.00">workflow&#45;requirements.txt</text>
</g>
</g>
</svg>
