<svg xmlns="http://www.w3.org/2000/svg" xmlns:xlink="http://www.w3.org/1999/xlink" id="visual" viewBox="0 0 900 600" width="900" height="600" version="1.1"><rect x="0" y="0" width="900" height="600" fill="#3d344a"/><defs><linearGradient id="grad1_0" x1="33.3%" y1="100%" x2="100%" y2="0%"><stop offset="20%" stop-color="#3d344a" stop-opacity="1"/><stop offset="80%" stop-color="#3d344a" stop-opacity="1"/></linearGradient></defs><defs><linearGradient id="grad2_0" x1="0%" y1="100%" x2="66.7%" y2="0%"><stop offset="20%" stop-color="#3d344a" stop-opacity="1"/><stop offset="80%" stop-color="#3d344a" stop-opacity="1"/></linearGradient></defs><g transform="translate(900, 600)"><path d="M-432.7 0C-366 -12.9 -299.3 -25.8 -306.3 -54C-313.2 -82.2 -393.8 -125.8 -393.7 -143.3C-393.7 -160.8 -313.1 -152.2 -279.7 -161.5C-246.3 -170.8 -260.2 -198 -254.3 -213.4C-248.5 -228.9 -223 -232.6 -207.6 -247.4C-192.3 -262.3 -187 -288.3 -173.5 -300.5C-160 -312.8 -138.1 -311.3 -121.8 -334.5C-105.4 -357.7 -94.5 -405.6 -75.1 -426.1C-55.8 -446.6 -27.9 -439.6 0 -432.7L0 0Z" fill="#131b25"/></g><g transform="translate(0, 0)"><path d="M432.7 0C383.5 18.5 334.3 37.1 320.1 56.4C305.8 75.8 326.6 96 347.7 126.5C368.8 157.1 390.1 198.1 374.7 216.3C359.3 234.5 307.1 229.9 268.9 225.6C230.7 221.3 206.6 217.3 196.7 234.4C186.8 251.5 191.2 289.6 183 317C174.8 344.4 153.9 361.1 131.3 360.8C108.7 360.6 84.4 343.4 62.2 352.6C40 361.7 20 397.2 0 432.7L0 0Z" fill="#131b25"/></g></svg>
