<svg xmlns="http://www.w3.org/2000/svg" xmlns:xlink="http://www.w3.org/1999/xlink" contentStyleType="text/css" height="425px" preserveAspectRatio="none" style="width:1439px;height:425px;background:#FFFFFF;" version="1.1" viewBox="0 0 1439 425" width="1439px" zoomAndPan="magnify"><title>Archive Task Interaction Flow with File Interactions</title><defs/><g><text fill="#000000" font-family="sans-serif" font-size="14" font-weight="bold" lengthAdjust="spacing" textLength="371.3486" x="533.2588" y="28.5352">Archive Task Interaction Flow with File Interactions</text><line style="stroke:#181818;stroke-width:0.5;stroke-dasharray:5.0,5.0;" x1="23" x2="23" y1="118.9766" y2="344.1504"/><line style="stroke:#181818;stroke-width:0.5;stroke-dasharray:5.0,5.0;" x1="218.1509" x2="218.1509" y1="118.9766" y2="344.1504"/><line style="stroke:#181818;stroke-width:0.5;stroke-dasharray:5.0,5.0;" x1="624.0732" x2="624.0732" y1="118.9766" y2="344.1504"/><line style="stroke:#181818;stroke-width:0.5;stroke-dasharray:5.0,5.0;" x1="986.2998" x2="986.2998" y1="118.9766" y2="344.1504"/><line style="stroke:#181818;stroke-width:0.5;stroke-dasharray:5.0,5.0;" x1="1391.8457" x2="1391.8457" y1="118.9766" y2="344.1504"/><text fill="#000000" font-family="sans-serif" font-size="14" lengthAdjust="spacing" textLength="30.3652" x="5" y="116.0234">User</text><ellipse cx="23.1826" cy="50.9883" fill="#E2E2F0" rx="8" ry="8" style="stroke:#181818;stroke-width:0.5;"/><path d="M23.1826,58.9883 L23.1826,85.9883 M10.1826,66.9883 L36.1826,66.9883 M23.1826,85.9883 L10.1826,100.9883 M23.1826,85.9883 L36.1826,100.9883 " fill="none" style="stroke:#181818;stroke-width:0.5;"/><text fill="#000000" font-family="sans-serif" font-size="14" lengthAdjust="spacing" textLength="30.3652" x="5" y="356.6855">User</text><ellipse cx="23.1826" cy="368.1387" fill="#E2E2F0" rx="8" ry="8" style="stroke:#181818;stroke-width:0.5;"/><path d="M23.1826,376.1387 L23.1826,403.1387 M10.1826,384.1387 L36.1826,384.1387 M23.1826,403.1387 L10.1826,418.1387 M23.1826,403.1387 L36.1826,418.1387 " fill="none" style="stroke:#181818;stroke-width:0.5;"/><rect fill="#E2E2F0" height="30.4883" rx="2.5" ry="2.5" style="stroke:#181818;stroke-width:0.5;" width="146.4941" x="145.1509" y="87.4883"/><text fill="#000000" font-family="sans-serif" font-size="14" lengthAdjust="spacing" textLength="132.4941" x="152.1509" y="108.0234">Frontend (HTML/JS)</text><rect fill="#E2E2F0" height="30.4883" rx="2.5" ry="2.5" style="stroke:#181818;stroke-width:0.5;" width="146.4941" x="145.1509" y="343.1504"/><text fill="#000000" font-family="sans-serif" font-size="14" lengthAdjust="spacing" textLength="132.4941" x="152.1509" y="363.6855">Frontend (HTML/JS)</text><rect fill="#E2E2F0" height="30.4883" rx="2.5" ry="2.5" style="stroke:#181818;stroke-width:0.5;" width="77.7451" x="586.0732" y="87.4883"/><text fill="#000000" font-family="sans-serif" font-size="14" lengthAdjust="spacing" textLength="63.7451" x="593.0732" y="108.0234">routes.py</text><rect fill="#E2E2F0" height="30.4883" rx="2.5" ry="2.5" style="stroke:#181818;stroke-width:0.5;" width="77.7451" x="586.0732" y="343.1504"/><text fill="#000000" font-family="sans-serif" font-size="14" lengthAdjust="spacing" textLength="63.7451" x="593.0732" y="363.6855">routes.py</text><rect fill="#E2E2F0" height="30.4883" rx="2.5" ry="2.5" style="stroke:#181818;stroke-width:0.5;" width="63.7109" x="955.2998" y="87.4883"/><text fill="#000000" font-family="sans-serif" font-size="14" lengthAdjust="spacing" textLength="49.7109" x="962.2998" y="108.0234">utils.py</text><rect fill="#E2E2F0" height="30.4883" rx="2.5" ry="2.5" style="stroke:#181818;stroke-width:0.5;" width="63.7109" x="955.2998" y="343.1504"/><text fill="#000000" font-family="sans-serif" font-size="14" lengthAdjust="spacing" textLength="49.7109" x="962.2998" y="363.6855">utils.py</text><rect fill="#E2E2F0" height="30.4883" rx="2.5" ry="2.5" style="stroke:#181818;stroke-width:0.5;" width="84.0205" x="1349.8457" y="87.4883"/><text fill="#000000" font-family="sans-serif" font-size="14" lengthAdjust="spacing" textLength="70.0205" x="1356.8457" y="108.0234">models.py</text><rect fill="#E2E2F0" height="30.4883" rx="2.5" ry="2.5" style="stroke:#181818;stroke-width:0.5;" width="84.0205" x="1349.8457" y="343.1504"/><text fill="#000000" font-family="sans-serif" font-size="14" lengthAdjust="spacing" textLength="70.0205" x="1356.8457" y="363.6855">models.py</text><polygon fill="#181818" points="206.3979,146.2871,216.3979,150.2871,206.3979,154.2871,210.3979,150.2871" style="stroke:#181818;stroke-width:1;"/><line style="stroke:#181818;stroke-width:1;" x1="23.1826" x2="212.3979" y1="150.2871" y2="150.2871"/><text fill="#000000" font-family="sans-serif" font-size="13" lengthAdjust="spacing" textLength="171.2153" x="30.1826" y="145.5449">Click "Archive Task" button</text><polygon fill="#181818" points="612.9458,175.5977,622.9458,179.5977,612.9458,183.5977,616.9458,179.5977" style="stroke:#181818;stroke-width:1;"/><line style="stroke:#181818;stroke-width:1;" x1="218.3979" x2="618.9458" y1="179.5977" y2="179.5977"/><text fill="#000000" font-family="sans-serif" font-size="13" lengthAdjust="spacing" textLength="382.5479" x="225.3979" y="174.8555">POST /tasks/archive/&lt;task_id&gt; (routes.py: Handles request)</text><polygon fill="#181818" points="975.1553,204.9082,985.1553,208.9082,975.1553,212.9082,979.1553,208.9082" style="stroke:#181818;stroke-width:1;"/><line style="stroke:#181818;stroke-width:1;" x1="624.9458" x2="981.1553" y1="208.9082" y2="208.9082"/><text fill="#000000" font-family="sans-serif" font-size="13" lengthAdjust="spacing" textLength="338.2095" x="631.9458" y="204.166">TaskService.archive_task(task) (utils.py: Archive logic)</text><polygon fill="#181818" points="1379.856,234.2188,1389.856,238.2188,1379.856,242.2188,1383.856,238.2188" style="stroke:#181818;stroke-width:1;"/><line style="stroke:#181818;stroke-width:1;" x1="987.1553" x2="1385.856" y1="238.2188" y2="238.2188"/><text fill="#000000" font-family="sans-serif" font-size="13" lengthAdjust="spacing" textLength="380.7007" x="994.1553" y="233.4766">Update task and subtasks (models.py: Set is_archived=True)</text><polygon fill="#181818" points="998.1553,263.5293,988.1553,267.5293,998.1553,271.5293,994.1553,267.5293" style="stroke:#181818;stroke-width:1;"/><line style="stroke:#181818;stroke-width:1;stroke-dasharray:2.0,2.0;" x1="992.1553" x2="1390.856" y1="267.5293" y2="267.5293"/><text fill="#000000" font-family="sans-serif" font-size="13" lengthAdjust="spacing" textLength="275.9644" x="1004.1553" y="262.7871">Save changes (models.py: Commit changes)</text><polygon fill="#181818" points="635.9458,292.8398,625.9458,296.8398,635.9458,300.8398,631.9458,296.8398" style="stroke:#181818;stroke-width:1;"/><line style="stroke:#181818;stroke-width:1;stroke-dasharray:2.0,2.0;" x1="629.9458" x2="986.1553" y1="296.8398" y2="296.8398"/><text fill="#000000" font-family="sans-serif" font-size="13" lengthAdjust="spacing" textLength="312.4126" x="641.9458" y="292.0977">Return success (utils.py: Business logic complete)</text><polygon fill="#181818" points="229.3979,322.1504,219.3979,326.1504,229.3979,330.1504,225.3979,326.1504" style="stroke:#181818;stroke-width:1;"/><line style="stroke:#181818;stroke-width:1;stroke-dasharray:2.0,2.0;" x1="223.3979" x2="623.9458" y1="326.1504" y2="326.1504"/><text fill="#000000" font-family="sans-serif" font-size="13" lengthAdjust="spacing" textLength="293.0396" x="235.3979" y="321.4082">Redirect to task list (routes.py: Response sent)</text><!--SRC=[LL9DRuCm3BtdLrWzmQ7bZhPAMwUgcpPj0dgkqc2rLY5XYTDg_tw10eLB52VFxyC94rS8BrQTwOfGI7U1TyrefM8o6hQLkS6D-0nR2hZ9bHCYR8o5lKCh6ccP53LICoosrWISBY7Q5L-VoKSUBq0w68xdO6iyerirVnqcwwevmZDL8o17UoM5SqHjIdn0tYJBetGeH6iDbkjH6LBOLAGki9W6Ni3HCnijHbXekHi93J_VUG491vnBvBqhUMhB0vLhY4RxAUoaBglGO_7Ne-DOz1o1hNSTw5h1lbhrT8UMBMgN6A8XR3g-IMLEf68nK0Is8M2WspUbP8Is6O8yE7_ih48qpYGDwWpa3hrS-LnOZx4OMPOpWxaCckeizGddB1jJryJ3rSJGT5ePihSws50AdPl6UVMET7lMvG5bwgP2niUKvk-KOKaM5GERUxgA7C_6dQ5hmZT4SAWv_WS0]--></g></svg>