<svg xmlns="http://www.w3.org/2000/svg" xmlns:xlink="http://www.w3.org/1999/xlink" contentStyleType="text/css" height="438px" preserveAspectRatio="none" style="width:1170px;height:438px;background:#FFFFFF;" version="1.1" viewBox="0 0 1170 438" width="1170px" zoomAndPan="magnify"><title>Assign Parent Task Interaction Flow with File Interactions</title><defs/><g><text fill="#000000" font-family="sans-serif" font-size="14" font-weight="bold" lengthAdjust="spacing" textLength="416.958" x="375.686" y="28.5352">Assign Parent Task Interaction Flow with File Interactions</text><line style="stroke:#181818;stroke-width:0.5;stroke-dasharray:5.0,5.0;" x1="23" x2="23" y1="118.9766" y2="357.1504"/><line style="stroke:#181818;stroke-width:0.5;stroke-dasharray:5.0,5.0;" x1="268.6719" x2="268.6719" y1="118.9766" y2="357.1504"/><line style="stroke:#181818;stroke-width:0.5;stroke-dasharray:5.0,5.0;" x1="717.3584" x2="717.3584" y1="118.9766" y2="357.1504"/><line style="stroke:#181818;stroke-width:0.5;stroke-dasharray:5.0,5.0;" x1="1122.3096" x2="1122.3096" y1="118.9766" y2="357.1504"/><text fill="#000000" font-family="sans-serif" font-size="14" lengthAdjust="spacing" textLength="30.3652" x="5" y="116.0234">User</text><ellipse cx="23.1826" cy="50.9883" fill="#E2E2F0" rx="8" ry="8" style="stroke:#181818;stroke-width:0.5;"/><path d="M23.1826,58.9883 L23.1826,85.9883 M10.1826,66.9883 L36.1826,66.9883 M23.1826,85.9883 L10.1826,100.9883 M23.1826,85.9883 L36.1826,100.9883 " fill="none" style="stroke:#181818;stroke-width:0.5;"/><text fill="#000000" font-family="sans-serif" font-size="14" lengthAdjust="spacing" textLength="30.3652" x="5" y="369.6855">User</text><ellipse cx="23.1826" cy="381.1387" fill="#E2E2F0" rx="8" ry="8" style="stroke:#181818;stroke-width:0.5;"/><path d="M23.1826,389.1387 L23.1826,416.1387 M10.1826,397.1387 L36.1826,397.1387 M23.1826,416.1387 L10.1826,431.1387 M23.1826,416.1387 L36.1826,431.1387 " fill="none" style="stroke:#181818;stroke-width:0.5;"/><rect fill="#E2E2F0" height="30.4883" rx="2.5" ry="2.5" style="stroke:#181818;stroke-width:0.5;" width="146.4941" x="195.6719" y="87.4883"/><text fill="#000000" font-family="sans-serif" font-size="14" lengthAdjust="spacing" textLength="132.4941" x="202.6719" y="108.0234">Frontend (HTML/JS)</text><rect fill="#E2E2F0" height="30.4883" rx="2.5" ry="2.5" style="stroke:#181818;stroke-width:0.5;" width="146.4941" x="195.6719" y="356.1504"/><text fill="#000000" font-family="sans-serif" font-size="14" lengthAdjust="spacing" textLength="132.4941" x="202.6719" y="376.6855">Frontend (HTML/JS)</text><rect fill="#E2E2F0" height="30.4883" rx="2.5" ry="2.5" style="stroke:#181818;stroke-width:0.5;" width="77.7451" x="679.3584" y="87.4883"/><text fill="#000000" font-family="sans-serif" font-size="14" lengthAdjust="spacing" textLength="63.7451" x="686.3584" y="108.0234">routes.py</text><rect fill="#E2E2F0" height="30.4883" rx="2.5" ry="2.5" style="stroke:#181818;stroke-width:0.5;" width="77.7451" x="679.3584" y="356.1504"/><text fill="#000000" font-family="sans-serif" font-size="14" lengthAdjust="spacing" textLength="63.7451" x="686.3584" y="376.6855">routes.py</text><rect fill="#E2E2F0" height="30.4883" rx="2.5" ry="2.5" style="stroke:#181818;stroke-width:0.5;" width="84.0205" x="1080.3096" y="87.4883"/><text fill="#000000" font-family="sans-serif" font-size="14" lengthAdjust="spacing" textLength="70.0205" x="1087.3096" y="108.0234">models.py</text><rect fill="#E2E2F0" height="30.4883" rx="2.5" ry="2.5" style="stroke:#181818;stroke-width:0.5;" width="84.0205" x="1080.3096" y="356.1504"/><text fill="#000000" font-family="sans-serif" font-size="14" lengthAdjust="spacing" textLength="70.0205" x="1087.3096" y="376.6855">models.py</text><polygon fill="#181818" points="256.9189,146.2871,266.9189,150.2871,256.9189,154.2871,260.9189,150.2871" style="stroke:#181818;stroke-width:1;"/><line style="stroke:#181818;stroke-width:1;" x1="23.1826" x2="262.9189" y1="150.2871" y2="150.2871"/><text fill="#000000" font-family="sans-serif" font-size="13" lengthAdjust="spacing" textLength="221.7363" x="30.1826" y="145.5449">Select parent task and submit form</text><polygon fill="#181818" points="706.231,175.5977,716.231,179.5977,706.231,183.5977,710.231,179.5977" style="stroke:#181818;stroke-width:1;"/><line style="stroke:#181818;stroke-width:1;" x1="268.9189" x2="712.231" y1="179.5977" y2="179.5977"/><text fill="#000000" font-family="sans-serif" font-size="13" lengthAdjust="spacing" textLength="425.312" x="275.9189" y="174.8555">POST /tasks/assign_parent/&lt;task_id&gt; (routes.py: Handles request)</text><polygon fill="#181818" points="1110.3198,204.9082,1120.3198,208.9082,1110.3198,212.9082,1114.3198,208.9082" style="stroke:#181818;stroke-width:1;"/><line style="stroke:#181818;stroke-width:1;" x1="718.231" x2="1116.3198" y1="208.9082" y2="208.9082"/><text fill="#000000" font-family="sans-serif" font-size="13" lengthAdjust="spacing" textLength="336.7241" x="725.231" y="204.166">Retrieve parent and subtask (models.py: Query tasks)</text><line style="stroke:#181818;stroke-width:1;" x1="718.231" x2="760.231" y1="238.2188" y2="238.2188"/><line style="stroke:#181818;stroke-width:1;" x1="760.231" x2="760.231" y1="238.2188" y2="251.2188"/><line style="stroke:#181818;stroke-width:1;" x1="719.231" x2="760.231" y1="251.2188" y2="251.2188"/><polygon fill="#181818" points="729.231,247.2188,719.231,251.2188,729.231,255.2188,725.231,251.2188" style="stroke:#181818;stroke-width:1;"/><text fill="#000000" font-family="sans-serif" font-size="13" lengthAdjust="spacing" textLength="390.0889" x="725.231" y="233.4766">Validate parent-child relationship (routes.py: Validation logic)</text><polygon fill="#181818" points="1110.3198,276.5293,1120.3198,280.5293,1110.3198,284.5293,1114.3198,280.5293" style="stroke:#181818;stroke-width:1;"/><line style="stroke:#181818;stroke-width:1;" x1="718.231" x2="1116.3198" y1="280.5293" y2="280.5293"/><text fill="#000000" font-family="sans-serif" font-size="13" lengthAdjust="spacing" textLength="366.2471" x="725.231" y="275.7871">Update subtask (models.py: Set parent_id=parent_task.id)</text><polygon fill="#181818" points="729.231,305.8398,719.231,309.8398,729.231,313.8398,725.231,309.8398" style="stroke:#181818;stroke-width:1;"/><line style="stroke:#181818;stroke-width:1;stroke-dasharray:2.0,2.0;" x1="723.231" x2="1121.3198" y1="309.8398" y2="309.8398"/><text fill="#000000" font-family="sans-serif" font-size="13" lengthAdjust="spacing" textLength="275.9644" x="735.231" y="305.0977">Save changes (models.py: Commit changes)</text><polygon fill="#181818" points="279.9189,335.1504,269.9189,339.1504,279.9189,343.1504,275.9189,339.1504" style="stroke:#181818;stroke-width:1;"/><line style="stroke:#181818;stroke-width:1;stroke-dasharray:2.0,2.0;" x1="273.9189" x2="717.231" y1="339.1504" y2="339.1504"/><text fill="#000000" font-family="sans-serif" font-size="13" lengthAdjust="spacing" textLength="315.6436" x="285.9189" y="334.4082">Redirect to task details (routes.py: Response sent)</text><!--SRC=[TP5FJyCm3CNl_HJMJkjXwts2IGWq3GHYj1lNoMlDPf4r9N6Pzkrn_z9AS4lYb-VViuN54DnvpySSDkWe5zYY_uJ7NCXXAcnpM1bxWGlB2LQiwa791u4Uh8ET9nSKw8HJBb1D9YjdLPTdC5rlNvwZfoIS07hediTYPqiXFo-kjIQkRsF5sMPaUiK32XxGKn1KZM6sx7rX0GaPIWMA9erKQL0BlZoSMU33kdFGg_Ldqqt_RLwJBKILtaTOJsJVU4GtrUEUioLCUz85hDNLw4z7NoLv2OFMIJqxFdMDIHpJDtKyBKgDDUrJBU2j97UjQVtGgQTxHyCPIkSpIqziCkrji5x4YOiHN2klrcViaTD_w7P5xVaNK4BT33NvRNkgL7FEmg3tc0qX4zIWwGdperw7PlVsN0s_BVt2Z3SNKyQksftOPcyP2RBnesGn-K83AxG2XJy0]--></g></svg>