<svg xmlns="http://www.w3.org/2000/svg" xmlns:xlink="http://www.w3.org/1999/xlink" contentStyleType="text/css" height="395px" preserveAspectRatio="none" style="width:1245px;height:395px;background:#FFFFFF;" version="1.1" viewBox="0 0 1245 395" width="1245px" zoomAndPan="magnify"><title>Assign Multiple Child Tasks Interaction Flow with File Interactions</title><defs/><g><text fill="#000000" font-family="sans-serif" font-size="14" font-weight="bold" lengthAdjust="spacing" textLength="479.5" x="381.7913" y="28.5352">Assign Multiple Child Tasks Interaction Flow with File Interactions</text><line style="stroke:#181818;stroke-width:0.5;stroke-dasharray:5.0,5.0;" x1="23" x2="23" y1="118.9766" y2="314.8398"/><line style="stroke:#181818;stroke-width:0.5;stroke-dasharray:5.0,5.0;" x1="309.0874" x2="309.0874" y1="118.9766" y2="314.8398"/><line style="stroke:#181818;stroke-width:0.5;stroke-dasharray:5.0,5.0;" x1="772.6909" x2="772.6909" y1="118.9766" y2="314.8398"/><line style="stroke:#181818;stroke-width:0.5;stroke-dasharray:5.0,5.0;" x1="1197.062" x2="1197.062" y1="118.9766" y2="314.8398"/><text fill="#000000" font-family="sans-serif" font-size="14" lengthAdjust="spacing" textLength="30.3652" x="5" y="116.0234">User</text><ellipse cx="23.1826" cy="50.9883" fill="#E2E2F0" rx="8" ry="8" style="stroke:#181818;stroke-width:0.5;"/><path d="M23.1826,58.9883 L23.1826,85.9883 M10.1826,66.9883 L36.1826,66.9883 M23.1826,85.9883 L10.1826,100.9883 M23.1826,85.9883 L36.1826,100.9883 " fill="none" style="stroke:#181818;stroke-width:0.5;"/><text fill="#000000" font-family="sans-serif" font-size="14" lengthAdjust="spacing" textLength="30.3652" x="5" y="327.375">User</text><ellipse cx="23.1826" cy="338.8281" fill="#E2E2F0" rx="8" ry="8" style="stroke:#181818;stroke-width:0.5;"/><path d="M23.1826,346.8281 L23.1826,373.8281 M10.1826,354.8281 L36.1826,354.8281 M23.1826,373.8281 L10.1826,388.8281 M23.1826,373.8281 L36.1826,388.8281 " fill="none" style="stroke:#181818;stroke-width:0.5;"/><rect fill="#E2E2F0" height="30.4883" rx="2.5" ry="2.5" style="stroke:#181818;stroke-width:0.5;" width="146.4941" x="236.0874" y="87.4883"/><text fill="#000000" font-family="sans-serif" font-size="14" lengthAdjust="spacing" textLength="132.4941" x="243.0874" y="108.0234">Frontend (HTML/JS)</text><rect fill="#E2E2F0" height="30.4883" rx="2.5" ry="2.5" style="stroke:#181818;stroke-width:0.5;" width="146.4941" x="236.0874" y="313.8398"/><text fill="#000000" font-family="sans-serif" font-size="14" lengthAdjust="spacing" textLength="132.4941" x="243.0874" y="334.375">Frontend (HTML/JS)</text><rect fill="#E2E2F0" height="30.4883" rx="2.5" ry="2.5" style="stroke:#181818;stroke-width:0.5;" width="77.7451" x="734.6909" y="87.4883"/><text fill="#000000" font-family="sans-serif" font-size="14" lengthAdjust="spacing" textLength="63.7451" x="741.6909" y="108.0234">routes.py</text><rect fill="#E2E2F0" height="30.4883" rx="2.5" ry="2.5" style="stroke:#181818;stroke-width:0.5;" width="77.7451" x="734.6909" y="313.8398"/><text fill="#000000" font-family="sans-serif" font-size="14" lengthAdjust="spacing" textLength="63.7451" x="741.6909" y="334.375">routes.py</text><rect fill="#E2E2F0" height="30.4883" rx="2.5" ry="2.5" style="stroke:#181818;stroke-width:0.5;" width="84.0205" x="1155.062" y="87.4883"/><text fill="#000000" font-family="sans-serif" font-size="14" lengthAdjust="spacing" textLength="70.0205" x="1162.062" y="108.0234">models.py</text><rect fill="#E2E2F0" height="30.4883" rx="2.5" ry="2.5" style="stroke:#181818;stroke-width:0.5;" width="84.0205" x="1155.062" y="313.8398"/><text fill="#000000" font-family="sans-serif" font-size="14" lengthAdjust="spacing" textLength="70.0205" x="1162.062" y="334.375">models.py</text><polygon fill="#181818" points="297.3345,146.2871,307.3345,150.2871,297.3345,154.2871,301.3345,150.2871" style="stroke:#181818;stroke-width:1;"/><line style="stroke:#181818;stroke-width:1;" x1="23.1826" x2="303.3345" y1="150.2871" y2="150.2871"/><text fill="#000000" font-family="sans-serif" font-size="13" lengthAdjust="spacing" textLength="262.1519" x="30.1826" y="145.5449">Select multiple subtasks and submit form</text><polygon fill="#181818" points="761.5635,175.5977,771.5635,179.5977,761.5635,183.5977,765.5635,179.5977" style="stroke:#181818;stroke-width:1;"/><line style="stroke:#181818;stroke-width:1;" x1="309.3345" x2="767.5635" y1="179.5977" y2="179.5977"/><text fill="#000000" font-family="sans-serif" font-size="13" lengthAdjust="spacing" textLength="440.229" x="316.3345" y="174.8555">POST /tasks/assign_subtasks/&lt;task_id&gt; (routes.py: Handles request)</text><polygon fill="#181818" points="1185.0723,204.9082,1195.0723,208.9082,1185.0723,212.9082,1189.0723,208.9082" style="stroke:#181818;stroke-width:1;"/><line style="stroke:#181818;stroke-width:1;" x1="773.5635" x2="1191.0723" y1="208.9082" y2="208.9082"/><text fill="#000000" font-family="sans-serif" font-size="13" lengthAdjust="spacing" textLength="373.731" x="780.5635" y="204.166">Retrieve parent task and subtasks (models.py: Query tasks)</text><polygon fill="#181818" points="1185.0723,234.2188,1195.0723,238.2188,1185.0723,242.2188,1189.0723,238.2188" style="stroke:#181818;stroke-width:1;"/><line style="stroke:#181818;stroke-width:1;" x1="773.5635" x2="1191.0723" y1="238.2188" y2="238.2188"/><text fill="#000000" font-family="sans-serif" font-size="13" lengthAdjust="spacing" textLength="399.5088" x="780.5635" y="233.4766">Update each subtask (models.py: Set parent_id=parent_task.id)</text><polygon fill="#181818" points="784.5635,263.5293,774.5635,267.5293,784.5635,271.5293,780.5635,267.5293" style="stroke:#181818;stroke-width:1;"/><line style="stroke:#181818;stroke-width:1;stroke-dasharray:2.0,2.0;" x1="778.5635" x2="1196.0723" y1="267.5293" y2="267.5293"/><text fill="#000000" font-family="sans-serif" font-size="13" lengthAdjust="spacing" textLength="275.9644" x="790.5635" y="262.7871">Save changes (models.py: Commit changes)</text><polygon fill="#181818" points="320.3345,292.8398,310.3345,296.8398,320.3345,300.8398,316.3345,296.8398" style="stroke:#181818;stroke-width:1;"/><line style="stroke:#181818;stroke-width:1;stroke-dasharray:2.0,2.0;" x1="314.3345" x2="772.5635" y1="296.8398" y2="296.8398"/><text fill="#000000" font-family="sans-serif" font-size="13" lengthAdjust="spacing" textLength="315.6436" x="326.3345" y="292.0977">Redirect to task details (routes.py: Response sent)</text><!--SRC=[TP91Ru9048Nl-oicdkIWt4rhqjWOszIq1JsRaPtAfWjBTuSQ_tq712e7J-moRxvvRu0DMuAd4CofX6rjsLHoN-N6QjXX-0xmKZ9vpDYu4jRMdU5iE8Ur4TbDAIWb1-TX7yYh2ZsRp5HOCapMteckr33TxBPlyMiQJG03zA_7OkzgfZ2lBgqcQMzZHU4qsK7nZ8n73AHKCnXcou4B2qZ9KiPGzB52VUGs4qfPBeLX-7A-K4EFz5zdIlV7Uxg3k6s8iLtGeGV43ytZOFGIfeFZ1Mo4QwNNqqzDWIFLiOJQ-nHkGkmD_H98B9943QftTBKt7J8kuBCcVsaruGvlNsba0i8ixn4ZGahSZHB3ZzsfKSsDZjG0cjrcJr7yPJcM9nhRMRcYsLfN-dSqNdn2slXczUokyJGn6Xj6sqeeLFBZo6SHGz4V]--></g></svg>