<?xml version="1.0" encoding="UTF-8" standalone="no"?>
<!DOCTYPE svg PUBLIC "-//W3C//DTD SVG 1.1//EN"
 "http://www.w3.org/Graphics/SVG/1.1/DTD/svg11.dtd">
<!-- Generated by graphviz version 12.2.0 (20241103.1931)
 -->
<!-- Title: classes_root_models Pages: 1 -->
<svg width="2554pt" height="413pt"
 viewBox="0.00 0.00 2554.00 412.50" xmlns="http://www.w3.org/2000/svg" xmlns:xlink="http://www.w3.org/1999/xlink">
<g id="graph0" class="graph" transform="scale(1 1) rotate(0) translate(4 408.5)">
<title>classes_root_models</title>
<polygon fill="white" stroke="none" points="-4,4 -4,-408.5 2550,-408.5 2550,4 -4,4"/>
<!-- pythonProject.forms.AddContributorForm -->
<g id="node1" class="node">
<title>pythonProject.forms.AddContributorForm</title>
<polygon fill="none" stroke="black" points="0,-157.25 0,-247.25 184.75,-247.25 184.75,-157.25 0,-157.25"/>
<text text-anchor="start" x="34.25" y="-229.95" font-family="Times,serif" font-size="14.00">AddContributorForm</text>
<polyline fill="none" stroke="black" points="0,-222.75 184.75,-222.75"/>
<text text-anchor="start" x="8" y="-205.45" font-family="Times,serif" font-size="14.00">contributor_name : StringField</text>
<text text-anchor="start" x="8" y="-188.95" font-family="Times,serif" font-size="14.00">submit : SubmitField</text>
<polyline fill="none" stroke="black" points="0,-181.75 184.75,-181.75"/>
<text text-anchor="start" x="90.5" y="-164.45" font-family="Times,serif" font-size="14.00"> </text>
</g>
<!-- pythonProject.forms.AddProgressForm -->
<g id="node2" class="node">
<title>pythonProject.forms.AddProgressForm</title>
<polygon fill="none" stroke="black" points="203.25,-149 203.25,-255.5 335.5,-255.5 335.5,-149 203.25,-149"/>
<text text-anchor="start" x="219.5" y="-238.2" font-family="Times,serif" font-size="14.00">AddProgressForm</text>
<polyline fill="none" stroke="black" points="203.25,-231 335.5,-231"/>
<text text-anchor="start" x="211.25" y="-213.7" font-family="Times,serif" font-size="14.00">date : DateField</text>
<text text-anchor="start" x="211.25" y="-197.2" font-family="Times,serif" font-size="14.00">points : IntegerField</text>
<text text-anchor="start" x="211.25" y="-180.7" font-family="Times,serif" font-size="14.00">submit : SubmitField</text>
<polyline fill="none" stroke="black" points="203.25,-173.5 335.5,-173.5"/>
<text text-anchor="start" x="267.5" y="-156.2" font-family="Times,serif" font-size="14.00"> </text>
</g>
<!-- pythonProject.forms.ArchiveTaskForm -->
<g id="node3" class="node">
<title>pythonProject.forms.ArchiveTaskForm</title>
<polygon fill="none" stroke="black" points="353.25,-165.5 353.25,-239 485.5,-239 485.5,-165.5 353.25,-165.5"/>
<text text-anchor="start" x="369.5" y="-221.7" font-family="Times,serif" font-size="14.00">ArchiveTaskForm</text>
<polyline fill="none" stroke="black" points="353.25,-214.5 485.5,-214.5"/>
<text text-anchor="start" x="361.25" y="-197.2" font-family="Times,serif" font-size="14.00">submit : SubmitField</text>
<polyline fill="none" stroke="black" points="353.25,-190 485.5,-190"/>
<text text-anchor="start" x="417.5" y="-172.7" font-family="Times,serif" font-size="14.00"> </text>
</g>
<!-- pythonProject.forms.AssignSubtaskForm -->
<g id="node4" class="node">
<title>pythonProject.forms.AssignSubtaskForm</title>
<polygon fill="none" stroke="black" points="503.25,-149 503.25,-255.5 653.5,-255.5 653.5,-149 503.25,-149"/>
<text text-anchor="start" x="523.25" y="-238.2" font-family="Times,serif" font-size="14.00">AssignSubtaskForm</text>
<polyline fill="none" stroke="black" points="503.25,-231 653.5,-231"/>
<text text-anchor="start" x="516.88" y="-213.7" font-family="Times,serif" font-size="14.00">parent_id : SelectField</text>
<text text-anchor="start" x="516.88" y="-197.2" font-family="Times,serif" font-size="14.00">submit : SubmitField</text>
<text text-anchor="start" x="516.88" y="-180.7" font-family="Times,serif" font-size="14.00">task_id : HiddenField</text>
<polyline fill="none" stroke="black" points="503.25,-173.5 653.5,-173.5"/>
<text text-anchor="start" x="511.25" y="-156.2" font-family="Times,serif" font-size="14.00">validate_parent_id(field)</text>
</g>
<!-- pythonProject.models.Contributor -->
<g id="node5" class="node">
<title>pythonProject.models.Contributor</title>
<polygon fill="none" stroke="black" points="671.88,-140.75 671.88,-263.75 750.88,-263.75 750.88,-140.75 671.88,-140.75"/>
<text text-anchor="start" x="679.88" y="-246.45" font-family="Times,serif" font-size="14.00">Contributor</text>
<polyline fill="none" stroke="black" points="671.88,-239.25 750.88,-239.25"/>
<text text-anchor="start" x="690" y="-221.95" font-family="Times,serif" font-size="14.00">id</text>
<text text-anchor="start" x="690" y="-205.45" font-family="Times,serif" font-size="14.00">name</text>
<text text-anchor="start" x="690" y="-188.95" font-family="Times,serif" font-size="14.00">projects</text>
<text text-anchor="start" x="690" y="-172.45" font-family="Times,serif" font-size="14.00">tasks</text>
<polyline fill="none" stroke="black" points="671.88,-165.25 750.88,-165.25"/>
<text text-anchor="start" x="709.5" y="-147.95" font-family="Times,serif" font-size="14.00"> </text>
</g>
<!-- pythonProject.forms.DeleteProjectForm -->
<g id="node6" class="node">
<title>pythonProject.forms.DeleteProjectForm</title>
<polygon fill="none" stroke="black" points="769.25,-165.5 769.25,-239 901.5,-239 901.5,-165.5 769.25,-165.5"/>
<text text-anchor="start" x="783.62" y="-221.7" font-family="Times,serif" font-size="14.00">DeleteProjectForm</text>
<polyline fill="none" stroke="black" points="769.25,-214.5 901.5,-214.5"/>
<text text-anchor="start" x="777.25" y="-197.2" font-family="Times,serif" font-size="14.00">submit : SubmitField</text>
<polyline fill="none" stroke="black" points="769.25,-190 901.5,-190"/>
<text text-anchor="start" x="833.5" y="-172.7" font-family="Times,serif" font-size="14.00"> </text>
</g>
<!-- pythonProject.forms.FilterTasksForm -->
<g id="node7" class="node">
<title>pythonProject.forms.FilterTasksForm</title>
<polygon fill="none" stroke="black" points="919.88,-157.25 919.88,-247.25 1094.88,-247.25 1094.88,-157.25 919.88,-157.25"/>
<text text-anchor="start" x="962" y="-229.95" font-family="Times,serif" font-size="14.00">FilterTasksForm</text>
<polyline fill="none" stroke="black" points="919.88,-222.75 1094.88,-222.75"/>
<text text-anchor="start" x="927.88" y="-205.45" font-family="Times,serif" font-size="14.00">show_archived : IntegerField</text>
<text text-anchor="start" x="927.88" y="-188.95" font-family="Times,serif" font-size="14.00">submit : SubmitField</text>
<polyline fill="none" stroke="black" points="919.88,-181.75 1094.88,-181.75"/>
<text text-anchor="start" x="1005.5" y="-164.45" font-family="Times,serif" font-size="14.00"> </text>
</g>
<!-- pythonProject.forms.ProgressEditForm -->
<g id="node8" class="node">
<title>pythonProject.forms.ProgressEditForm</title>
<polygon fill="none" stroke="black" points="1112.88,-157.25 1112.88,-247.25 1305.88,-247.25 1305.88,-157.25 1112.88,-157.25"/>
<text text-anchor="start" x="1159.88" y="-229.95" font-family="Times,serif" font-size="14.00">ProgressEditForm</text>
<polyline fill="none" stroke="black" points="1112.88,-222.75 1305.88,-222.75"/>
<text text-anchor="start" x="1120.88" y="-205.45" font-family="Times,serif" font-size="14.00">contributor_points : IntegerField</text>
<text text-anchor="start" x="1120.88" y="-188.95" font-family="Times,serif" font-size="14.00">submit : SubmitField</text>
<polyline fill="none" stroke="black" points="1112.88,-181.75 1305.88,-181.75"/>
<text text-anchor="start" x="1207.5" y="-164.45" font-family="Times,serif" font-size="14.00"> </text>
</g>
<!-- pythonProject.models.ProgressEntry -->
<g id="node9" class="node">
<title>pythonProject.models.ProgressEntry</title>
<polygon fill="none" stroke="black" points="1323.75,-132.5 1323.75,-272 1417,-272 1417,-132.5 1323.75,-132.5"/>
<text text-anchor="start" x="1332.12" y="-254.7" font-family="Times,serif" font-size="14.00">ProgressEntry</text>
<polyline fill="none" stroke="black" points="1323.75,-247.5 1417,-247.5"/>
<text text-anchor="start" x="1331.75" y="-230.2" font-family="Times,serif" font-size="14.00">contributor_id</text>
<text text-anchor="start" x="1331.75" y="-213.7" font-family="Times,serif" font-size="14.00">date</text>
<text text-anchor="start" x="1331.75" y="-197.2" font-family="Times,serif" font-size="14.00">id</text>
<text text-anchor="start" x="1331.75" y="-180.7" font-family="Times,serif" font-size="14.00">points</text>
<text text-anchor="start" x="1331.75" y="-164.2" font-family="Times,serif" font-size="14.00">project_id</text>
<polyline fill="none" stroke="black" points="1323.75,-157 1417,-157"/>
<text text-anchor="start" x="1368.5" y="-139.7" font-family="Times,serif" font-size="14.00"> </text>
</g>
<!-- pythonProject.models.Project -->
<g id="node10" class="node">
<title>pythonProject.models.Project</title>
<polygon fill="none" stroke="black" points="1434.88,-66.5 1434.88,-338 1627.88,-338 1627.88,-66.5 1434.88,-66.5"/>
<text text-anchor="start" x="1512.25" y="-320.7" font-family="Times,serif" font-size="14.00">Project</text>
<polyline fill="none" stroke="black" points="1434.88,-313.5 1627.88,-313.5"/>
<text text-anchor="start" x="1466.12" y="-296.2" font-family="Times,serif" font-size="14.00">completed_story_points</text>
<text text-anchor="start" x="1466.12" y="-279.7" font-family="Times,serif" font-size="14.00">contributors</text>
<text text-anchor="start" x="1466.12" y="-263.2" font-family="Times,serif" font-size="14.00">created_at</text>
<text text-anchor="start" x="1466.12" y="-246.7" font-family="Times,serif" font-size="14.00">end_date</text>
<text text-anchor="start" x="1466.12" y="-230.2" font-family="Times,serif" font-size="14.00">id</text>
<text text-anchor="start" x="1466.12" y="-213.7" font-family="Times,serif" font-size="14.00">name</text>
<text text-anchor="start" x="1466.12" y="-197.2" font-family="Times,serif" font-size="14.00">start_date</text>
<text text-anchor="start" x="1466.12" y="-180.7" font-family="Times,serif" font-size="14.00">tasks</text>
<text text-anchor="start" x="1466.12" y="-164.2" font-family="Times,serif" font-size="14.00">total_story_points</text>
<text text-anchor="start" x="1466.12" y="-147.7" font-family="Times,serif" font-size="14.00">updated_at</text>
<polyline fill="none" stroke="black" points="1434.88,-140.5 1627.88,-140.5"/>
<text text-anchor="start" x="1442.88" y="-123.2" font-family="Times,serif" font-size="14.00">add_contributor(contributor)</text>
<text text-anchor="start" x="1442.88" y="-106.7" font-family="Times,serif" font-size="14.00">completion_percentage()</text>
<text text-anchor="start" x="1442.88" y="-90.2" font-family="Times,serif" font-size="14.00">remove_contributor(contributor)</text>
<text text-anchor="start" x="1442.88" y="-73.7" font-family="Times,serif" font-size="14.00">update_story_points()</text>
</g>
<!-- pythonProject.forms.ProjectForm -->
<g id="node11" class="node">
<title>pythonProject.forms.ProjectForm</title>
<polygon fill="none" stroke="black" points="1646.25,-140.75 1646.25,-263.75 1808.5,-263.75 1808.5,-140.75 1646.25,-140.75"/>
<text text-anchor="start" x="1693.25" y="-246.45" font-family="Times,serif" font-size="14.00">ProjectForm</text>
<polyline fill="none" stroke="black" points="1646.25,-239.25 1808.5,-239.25"/>
<text text-anchor="start" x="1654.25" y="-221.95" font-family="Times,serif" font-size="14.00">end_date : DateField</text>
<text text-anchor="start" x="1654.25" y="-205.45" font-family="Times,serif" font-size="14.00">project_name : StringField</text>
<text text-anchor="start" x="1654.25" y="-188.95" font-family="Times,serif" font-size="14.00">start_date : DateField</text>
<text text-anchor="start" x="1654.25" y="-172.45" font-family="Times,serif" font-size="14.00">submit : SubmitField</text>
<polyline fill="none" stroke="black" points="1646.25,-165.25 1808.5,-165.25"/>
<text text-anchor="start" x="1725.5" y="-147.95" font-family="Times,serif" font-size="14.00"> </text>
</g>
<!-- pythonProject.forms.ReassignSubtaskForm -->
<g id="node12" class="node">
<title>pythonProject.forms.ReassignSubtaskForm</title>
<polygon fill="none" stroke="black" points="1826.62,-165.5 1826.62,-239 2006.12,-239 2006.12,-165.5 1826.62,-165.5"/>
<text text-anchor="start" x="1855.62" y="-221.7" font-family="Times,serif" font-size="14.00">ReassignSubtaskForm</text>
<polyline fill="none" stroke="black" points="1826.62,-214.5 2006.12,-214.5"/>
<text text-anchor="start" x="1837.62" y="-197.2" font-family="Times,serif" font-size="14.00">new_parent_id : IntegerField</text>
<polyline fill="none" stroke="black" points="1826.62,-190 2006.12,-190"/>
<text text-anchor="start" x="1834.62" y="-172.7" font-family="Times,serif" font-size="14.00">validate_new_parent_id(field)</text>
</g>
<!-- pythonProject.tasks.models.Task -->
<g id="node13" class="node">
<title>pythonProject.tasks.models.Task</title>
<polygon fill="none" stroke="black" points="2024.5,-0.5 2024.5,-404 2362.25,-404 2362.25,-0.5 2024.5,-0.5"/>
<text text-anchor="start" x="2180.25" y="-386.7" font-family="Times,serif" font-size="14.00">Task</text>
<polyline fill="none" stroke="black" points="2024.5,-379.5 2362.25,-379.5"/>
<text text-anchor="start" x="2150.25" y="-362.2" font-family="Times,serif" font-size="14.00">completed</text>
<text text-anchor="start" x="2150.25" y="-345.7" font-family="Times,serif" font-size="14.00">completed_date</text>
<text text-anchor="start" x="2150.25" y="-329.2" font-family="Times,serif" font-size="14.00">contributor</text>
<text text-anchor="start" x="2150.25" y="-312.7" font-family="Times,serif" font-size="14.00">contributor_id</text>
<text text-anchor="start" x="2150.25" y="-296.2" font-family="Times,serif" font-size="14.00">created_at</text>
<text text-anchor="start" x="2150.25" y="-279.7" font-family="Times,serif" font-size="14.00">description</text>
<text text-anchor="start" x="2150.25" y="-263.2" font-family="Times,serif" font-size="14.00">id</text>
<text text-anchor="start" x="2150.25" y="-246.7" font-family="Times,serif" font-size="14.00">is_archived</text>
<text text-anchor="start" x="2150.25" y="-230.2" font-family="Times,serif" font-size="14.00">name</text>
<text text-anchor="start" x="2150.25" y="-213.7" font-family="Times,serif" font-size="14.00">parent</text>
<text text-anchor="start" x="2150.25" y="-197.2" font-family="Times,serif" font-size="14.00">parent_id</text>
<text text-anchor="start" x="2150.25" y="-180.7" font-family="Times,serif" font-size="14.00">project</text>
<text text-anchor="start" x="2150.25" y="-164.2" font-family="Times,serif" font-size="14.00">project_id</text>
<text text-anchor="start" x="2150.25" y="-147.7" font-family="Times,serif" font-size="14.00">sort_order</text>
<text text-anchor="start" x="2150.25" y="-131.2" font-family="Times,serif" font-size="14.00">story_points</text>
<text text-anchor="start" x="2150.25" y="-114.7" font-family="Times,serif" font-size="14.00">task_type</text>
<text text-anchor="start" x="2150.25" y="-98.2" font-family="Times,serif" font-size="14.00">updated_at</text>
<polyline fill="none" stroke="black" points="2024.5,-91 2362.25,-91"/>
<text text-anchor="start" x="2032.5" y="-73.7" font-family="Times,serif" font-size="14.00">archive()</text>
<text text-anchor="start" x="2032.5" y="-57.2" font-family="Times,serif" font-size="14.00">filter_tasks(show_archived, completion_status, task_types)</text>
<text text-anchor="start" x="2032.5" y="-40.7" font-family="Times,serif" font-size="14.00">mark_completed()</text>
<text text-anchor="start" x="2032.5" y="-24.2" font-family="Times,serif" font-size="14.00">unarchive()</text>
<text text-anchor="start" x="2032.5" y="-7.7" font-family="Times,serif" font-size="14.00">validate_hierarchy()</text>
</g>
<!-- pythonProject.forms.TaskForm -->
<g id="node14" class="node">
<title>pythonProject.forms.TaskForm</title>
<polygon fill="none" stroke="black" points="2380.75,-124.25 2380.75,-280.25 2546,-280.25 2546,-124.25 2380.75,-124.25"/>
<text text-anchor="start" x="2435.25" y="-262.95" font-family="Times,serif" font-size="14.00">TaskForm</text>
<polyline fill="none" stroke="black" points="2380.75,-255.75 2546,-255.75"/>
<text text-anchor="start" x="2388.75" y="-238.45" font-family="Times,serif" font-size="14.00">description : TextAreaField</text>
<text text-anchor="start" x="2388.75" y="-221.95" font-family="Times,serif" font-size="14.00">name : StringField</text>
<text text-anchor="start" x="2388.75" y="-205.45" font-family="Times,serif" font-size="14.00">parent_id : IntegerField</text>
<text text-anchor="start" x="2388.75" y="-188.95" font-family="Times,serif" font-size="14.00">status : StringField</text>
<text text-anchor="start" x="2388.75" y="-172.45" font-family="Times,serif" font-size="14.00">story_points : IntegerField</text>
<text text-anchor="start" x="2388.75" y="-155.95" font-family="Times,serif" font-size="14.00">submit : SubmitField</text>
<polyline fill="none" stroke="black" points="2380.75,-148.75 2546,-148.75"/>
<text text-anchor="start" x="2396.25" y="-131.45" font-family="Times,serif" font-size="14.00">validate_parent_id(field)</text>
</g>
</g>
</svg>
