<svg xmlns="http://www.w3.org/2000/svg" xmlns:xlink="http://www.w3.org/1999/xlink" contentStyleType="text/css" height="366px" preserveAspectRatio="none" style="width:1062px;height:366px;background:#FFFFFF;" version="1.1" viewBox="0 0 1062 366" width="1062px" zoomAndPan="magnify"><title>Disconnect Parent Task Interaction Flow with File Interactions</title><defs/><g><text fill="#000000" font-family="sans-serif" font-size="14" font-weight="bold" lengthAdjust="spacing" textLength="447.5146" x="306.3999" y="28.5352">Disconnect Parent Task Interaction Flow with File Interactions</text><line style="stroke:#181818;stroke-width:0.5;stroke-dasharray:5.0,5.0;" x1="23" x2="23" y1="118.9766" y2="285.5293"/><line style="stroke:#181818;stroke-width:0.5;stroke-dasharray:5.0,5.0;" x1="251.3047" x2="251.3047" y1="118.9766" y2="285.5293"/><line style="stroke:#181818;stroke-width:0.5;stroke-dasharray:5.0,5.0;" x1="680.3833" x2="680.3833" y1="118.9766" y2="285.5293"/><line style="stroke:#181818;stroke-width:0.5;stroke-dasharray:5.0,5.0;" x1="1014.2939" x2="1014.2939" y1="118.9766" y2="285.5293"/><text fill="#000000" font-family="sans-serif" font-size="14" lengthAdjust="spacing" textLength="30.3652" x="5" y="116.0234">User</text><ellipse cx="23.1826" cy="50.9883" fill="#E2E2F0" rx="8" ry="8" style="stroke:#181818;stroke-width:0.5;"/><path d="M23.1826,58.9883 L23.1826,85.9883 M10.1826,66.9883 L36.1826,66.9883 M23.1826,85.9883 L10.1826,100.9883 M23.1826,85.9883 L36.1826,100.9883 " fill="none" style="stroke:#181818;stroke-width:0.5;"/><text fill="#000000" font-family="sans-serif" font-size="14" lengthAdjust="spacing" textLength="30.3652" x="5" y="298.0645">User</text><ellipse cx="23.1826" cy="309.5176" fill="#E2E2F0" rx="8" ry="8" style="stroke:#181818;stroke-width:0.5;"/><path d="M23.1826,317.5176 L23.1826,344.5176 M10.1826,325.5176 L36.1826,325.5176 M23.1826,344.5176 L10.1826,359.5176 M23.1826,344.5176 L36.1826,359.5176 " fill="none" style="stroke:#181818;stroke-width:0.5;"/><rect fill="#E2E2F0" height="30.4883" rx="2.5" ry="2.5" style="stroke:#181818;stroke-width:0.5;" width="146.4941" x="178.3047" y="87.4883"/><text fill="#000000" font-family="sans-serif" font-size="14" lengthAdjust="spacing" textLength="132.4941" x="185.3047" y="108.0234">Frontend (HTML/JS)</text><rect fill="#E2E2F0" height="30.4883" rx="2.5" ry="2.5" style="stroke:#181818;stroke-width:0.5;" width="146.4941" x="178.3047" y="284.5293"/><text fill="#000000" font-family="sans-serif" font-size="14" lengthAdjust="spacing" textLength="132.4941" x="185.3047" y="305.0645">Frontend (HTML/JS)</text><rect fill="#E2E2F0" height="30.4883" rx="2.5" ry="2.5" style="stroke:#181818;stroke-width:0.5;" width="77.7451" x="642.3833" y="87.4883"/><text fill="#000000" font-family="sans-serif" font-size="14" lengthAdjust="spacing" textLength="63.7451" x="649.3833" y="108.0234">routes.py</text><rect fill="#E2E2F0" height="30.4883" rx="2.5" ry="2.5" style="stroke:#181818;stroke-width:0.5;" width="77.7451" x="642.3833" y="284.5293"/><text fill="#000000" font-family="sans-serif" font-size="14" lengthAdjust="spacing" textLength="63.7451" x="649.3833" y="305.0645">routes.py</text><rect fill="#E2E2F0" height="30.4883" rx="2.5" ry="2.5" style="stroke:#181818;stroke-width:0.5;" width="84.0205" x="972.2939" y="87.4883"/><text fill="#000000" font-family="sans-serif" font-size="14" lengthAdjust="spacing" textLength="70.0205" x="979.2939" y="108.0234">models.py</text><rect fill="#E2E2F0" height="30.4883" rx="2.5" ry="2.5" style="stroke:#181818;stroke-width:0.5;" width="84.0205" x="972.2939" y="284.5293"/><text fill="#000000" font-family="sans-serif" font-size="14" lengthAdjust="spacing" textLength="70.0205" x="979.2939" y="305.0645">models.py</text><polygon fill="#181818" points="239.5518,146.2871,249.5518,150.2871,239.5518,154.2871,243.5518,150.2871" style="stroke:#181818;stroke-width:1;"/><line style="stroke:#181818;stroke-width:1;" x1="23.1826" x2="245.5518" y1="150.2871" y2="150.2871"/><text fill="#000000" font-family="sans-serif" font-size="13" lengthAdjust="spacing" textLength="204.3691" x="30.1826" y="145.5449">Click "Disconnect Parent" button</text><polygon fill="#181818" points="669.2559,175.5977,679.2559,179.5977,669.2559,183.5977,673.2559,179.5977" style="stroke:#181818;stroke-width:1;"/><line style="stroke:#181818;stroke-width:1;" x1="251.5518" x2="675.2559" y1="179.5977" y2="179.5977"/><text fill="#000000" font-family="sans-serif" font-size="13" lengthAdjust="spacing" textLength="405.7041" x="258.5518" y="174.8555">POST /tasks/disconnect/&lt;task_id&gt; (routes.py: Handles request)</text><polygon fill="#181818" points="1002.3042,204.9082,1012.3042,208.9082,1002.3042,212.9082,1006.3042,208.9082" style="stroke:#181818;stroke-width:1;"/><line style="stroke:#181818;stroke-width:1;" x1="681.2559" x2="1008.3042" y1="208.9082" y2="208.9082"/><text fill="#000000" font-family="sans-serif" font-size="13" lengthAdjust="spacing" textLength="309.0483" x="688.2559" y="204.166">Update subtask (models.py: Set parent_id=NULL)</text><polygon fill="#181818" points="692.2559,234.2188,682.2559,238.2188,692.2559,242.2188,688.2559,238.2188" style="stroke:#181818;stroke-width:1;"/><line style="stroke:#181818;stroke-width:1;stroke-dasharray:2.0,2.0;" x1="686.2559" x2="1013.3042" y1="238.2188" y2="238.2188"/><text fill="#000000" font-family="sans-serif" font-size="13" lengthAdjust="spacing" textLength="275.9644" x="698.2559" y="233.4766">Save changes (models.py: Commit changes)</text><polygon fill="#181818" points="262.5518,263.5293,252.5518,267.5293,262.5518,271.5293,258.5518,267.5293" style="stroke:#181818;stroke-width:1;"/><line style="stroke:#181818;stroke-width:1;stroke-dasharray:2.0,2.0;" x1="256.5518" x2="680.2559" y1="267.5293" y2="267.5293"/><text fill="#000000" font-family="sans-serif" font-size="13" lengthAdjust="spacing" textLength="293.0396" x="268.5518" y="262.7871">Redirect to task list (routes.py: Response sent)</text><!--SRC=[PL71JiCm3BtdAwoUriFelO9TDaq33PZQxeoyn6BHkgGaBXD_ZrjOMCKjjjzxVizXoot1oaRjdIFDiCD0Zg71U897nnHGi_KErgs_mCNo4TPM63UZg9GyV81zfA0w36orxL14idNmWdC6PflcULiyrNa66E7QdeA3xvdYNVSrOggncYBEtb2R42jaF60afOR5C5yaNIXXsLfzWknVi0mEFRDtAc65zxDBMBlNke629NiiJA8MzqFdpPe5p9B94ZReJ2kqG1yzHSxLhum8Ngs9vBupo0InFmmYC4iPIgY9eHjTYVR3otwxpLLYpczzrVX9e8_etgMybLZwyzdoTVHdONgCYemDmmtOm-YYjP4dMIgAdVoa-1Gt-JS0]--></g></svg>