<?xml version="1.0" encoding="UTF-8" standalone="no"?>
<!DOCTYPE svg PUBLIC "-//W3C//DTD SVG 1.1//EN"
 "http://www.w3.org/Graphics/SVG/1.1/DTD/svg11.dtd">
<!-- Generated by graphviz version 12.2.0 (20241103.1931)
 -->
<!-- Title: packages_tasks_models Pages: 1 -->
<svg width="497pt" height="116pt"
 viewBox="0.00 0.00 496.75 116.00" xmlns="http://www.w3.org/2000/svg" xmlns:xlink="http://www.w3.org/1999/xlink">
<g id="graph0" class="graph" transform="scale(1 1) rotate(0) translate(4 112)">
<title>packages_tasks_models</title>
<polygon fill="white" stroke="none" points="-4,4 -4,-112 492.75,-112 492.75,4 -4,4"/>
<!-- pythonProject.tasks -->
<g id="node1" class="node">
<title>pythonProject.tasks</title>
<polygon fill="none" stroke="black" points="144.25,-36 21.75,-36 21.75,0 144.25,0 144.25,-36"/>
<text text-anchor="middle" x="83" y="-12.95" font-family="Times,serif" font-size="14.00">pythonProject.tasks</text>
</g>
<!-- pythonProject.tasks.models -->
<g id="node2" class="node">
<title>pythonProject.tasks.models</title>
<polygon fill="none" stroke="black" points="166,-108 0,-108 0,-72 166,-72 166,-108"/>
<text text-anchor="middle" x="83" y="-84.95" font-family="Times,serif" font-size="14.00">pythonProject.tasks.models</text>
</g>
<!-- pythonProject.tasks&#45;&gt;pythonProject.tasks.models -->
<g id="edge1" class="edge">
<title>pythonProject.tasks&#45;&gt;pythonProject.tasks.models</title>
<path fill="none" stroke="black" d="M83,-36.3C83,-43.68 83,-52.48 83,-60.75"/>
<polygon fill="black" stroke="black" points="83,-70.68 78.5,-60.68 83,-66.9 83,-60.68 83,-60.68 83,-60.68 83,-66.9 87.5,-60.68 83,-70.68"/>
</g>
<!-- pythonProject.tasks.routes -->
<g id="node3" class="node">
<title>pythonProject.tasks.routes</title>
<polygon fill="none" stroke="black" points="321.62,-36 162.38,-36 162.38,0 321.62,0 321.62,-36"/>
<text text-anchor="middle" x="242" y="-12.95" font-family="Times,serif" font-size="14.00">pythonProject.tasks.routes</text>
</g>
<!-- pythonProject.tasks.utils -->
<g id="node4" class="node">
<title>pythonProject.tasks.utils</title>
<polygon fill="none" stroke="black" points="488.75,-36 339.25,-36 339.25,0 488.75,0 488.75,-36"/>
<text text-anchor="middle" x="414" y="-12.95" font-family="Times,serif" font-size="14.00">pythonProject.tasks.utils</text>
</g>
</g>
</svg>
