<?xml version="1.0" encoding="UTF-8" standalone="no"?>
<!DOCTYPE svg PUBLIC "-//W3C//DTD SVG 1.1//EN"
 "http://www.w3.org/Graphics/SVG/1.1/DTD/svg11.dtd">
<!-- Generated by graphviz version 12.2.0 (20241103.1931)
 -->
<!-- Title: packages_root_models Pages: 1 -->
<svg width="1713pt" height="404pt"
 viewBox="0.00 0.00 1713.25 404.00" xmlns="http://www.w3.org/2000/svg" xmlns:xlink="http://www.w3.org/1999/xlink">
<g id="graph0" class="graph" transform="scale(1 1) rotate(0) translate(4 400)">
<title>packages_root_models</title>
<polygon fill="white" stroke="none" points="-4,4 -4,-400 1709.25,-400 1709.25,4 -4,4"/>
<!-- pythonProject -->
<g id="node1" class="node">
<title>pythonProject</title>
<polygon fill="none" stroke="black" points="259.12,-36 167.38,-36 167.38,0 259.12,0 259.12,-36"/>
<text text-anchor="middle" x="213.25" y="-12.95" font-family="Times,serif" font-size="14.00">pythonProject</text>
</g>
<!-- pythonProject.all_models -->
<g id="node2" class="node">
<title>pythonProject.all_models</title>
<polygon fill="none" stroke="black" points="211,-180 55.5,-180 55.5,-144 211,-144 211,-180"/>
<text text-anchor="middle" x="133.25" y="-156.95" font-family="Times,serif" font-size="14.00">pythonProject.all_models</text>
</g>
<!-- pythonProject.extensions -->
<g id="node10" class="node">
<title>pythonProject.extensions</title>
<polygon fill="none" stroke="black" points="152.5,-396 0,-396 0,-360 152.5,-360 152.5,-396"/>
<text text-anchor="middle" x="76.25" y="-372.95" font-family="Times,serif" font-size="14.00">pythonProject.extensions</text>
</g>
<!-- pythonProject.all_models&#45;&gt;pythonProject.extensions -->
<g id="edge1" class="edge">
<title>pythonProject.all_models&#45;&gt;pythonProject.extensions</title>
<path fill="none" stroke="black" d="M109.42,-180.4C98.74,-189.66 87.22,-202.01 81.25,-216 62.69,-259.48 66.46,-315.75 71.17,-348.95"/>
<polygon fill="black" stroke="black" points="72.65,-358.47 66.66,-349.28 72.07,-354.74 71.11,-348.59 71.11,-348.59 71.11,-348.59 72.07,-354.74 75.56,-347.9 72.65,-358.47"/>
</g>
<!-- pythonProject.models -->
<g id="node15" class="node">
<title>pythonProject.models</title>
<polygon fill="none" stroke="black" points="333.88,-324 198.62,-324 198.62,-288 333.88,-288 333.88,-324"/>
<text text-anchor="middle" x="266.25" y="-300.95" font-family="Times,serif" font-size="14.00">pythonProject.models</text>
</g>
<!-- pythonProject.all_models&#45;&gt;pythonProject.models -->
<g id="edge2" class="edge">
<title>pythonProject.all_models&#45;&gt;pythonProject.models</title>
<path fill="none" stroke="black" d="M132.58,-180.31C132.73,-199.78 135.8,-231.37 152.25,-252 162.8,-265.23 177.41,-275.31 192.66,-282.93"/>
<polygon fill="black" stroke="black" points="201.63,-287.08 190.66,-286.96 198.2,-285.49 192.55,-282.88 192.55,-282.88 192.55,-282.88 198.2,-285.49 194.44,-278.8 201.63,-287.08"/>
</g>
<!-- pythonProject.api_routes -->
<g id="node3" class="node">
<title>pythonProject.api_routes</title>
<polygon fill="none" stroke="black" points="425.12,-180 273.38,-180 273.38,-144 425.12,-144 425.12,-180"/>
<text text-anchor="middle" x="349.25" y="-156.95" font-family="Times,serif" font-size="14.00">pythonProject.api_routes</text>
</g>
<!-- pythonProject.api_routes&#45;&gt;pythonProject.extensions -->
<g id="edge3" class="edge">
<title>pythonProject.api_routes&#45;&gt;pythonProject.extensions</title>
<path fill="none" stroke="black" d="M273.01,-168.28C233.22,-174.52 185.94,-187.83 152.25,-216 110.84,-250.61 90.57,-312.91 81.86,-349.02"/>
<polygon fill="black" stroke="black" points="79.69,-358.57 77.51,-347.82 80.53,-354.88 81.9,-348.81 81.9,-348.81 81.9,-348.81 80.53,-354.88 86.29,-349.81 79.69,-358.57"/>
</g>
<!-- pythonProject.forms -->
<g id="node11" class="node">
<title>pythonProject.forms</title>
<polygon fill="none" stroke="black" points="505.12,-252 377.38,-252 377.38,-216 505.12,-216 505.12,-252"/>
<text text-anchor="middle" x="441.25" y="-228.95" font-family="Times,serif" font-size="14.00">pythonProject.forms</text>
</g>
<!-- pythonProject.api_routes&#45;&gt;pythonProject.forms -->
<g id="edge4" class="edge">
<title>pythonProject.api_routes&#45;&gt;pythonProject.forms</title>
<path fill="none" stroke="black" d="M371.99,-180.3C383.38,-188.97 397.35,-199.6 409.76,-209.04"/>
<polygon fill="black" stroke="black" points="417.48,-214.92 406.8,-212.44 414.47,-212.63 409.52,-208.86 409.52,-208.86 409.52,-208.86 414.47,-212.63 412.25,-205.28 417.48,-214.92"/>
</g>
<!-- pythonProject.api_routes&#45;&gt;pythonProject.models -->
<g id="edge5" class="edge">
<title>pythonProject.api_routes&#45;&gt;pythonProject.models</title>
<path fill="none" stroke="black" d="M339.07,-180.41C324.75,-204.92 298.51,-249.81 281.75,-278.48"/>
<polygon fill="black" stroke="black" points="276.87,-286.84 278.03,-275.93 278.77,-283.57 281.91,-278.2 281.91,-278.2 281.91,-278.2 278.77,-283.57 285.8,-280.47 276.87,-286.84"/>
</g>
<!-- pythonProject.tasks.models -->
<g id="node18" class="node">
<title>pythonProject.tasks.models</title>
<polygon fill="none" stroke="black" points="697.25,-324 531.25,-324 531.25,-288 697.25,-288 697.25,-324"/>
<text text-anchor="middle" x="614.25" y="-300.95" font-family="Times,serif" font-size="14.00">pythonProject.tasks.models</text>
</g>
<!-- pythonProject.api_routes&#45;&gt;pythonProject.tasks.models -->
<g id="edge6" class="edge">
<title>pythonProject.api_routes&#45;&gt;pythonProject.tasks.models</title>
<path fill="none" stroke="black" d="M347.81,-180.3C347.15,-200.37 349.39,-233.1 368.25,-252 389.61,-273.4 459.76,-287.15 519.71,-295.27"/>
<polygon fill="black" stroke="black" points="529.56,-296.56 519.06,-299.72 525.82,-296.07 519.65,-295.26 519.65,-295.26 519.65,-295.26 525.82,-296.07 520.24,-290.8 529.56,-296.56"/>
</g>
<!-- pythonProject.tasks.utils -->
<g id="node20" class="node">
<title>pythonProject.tasks.utils</title>
<polygon fill="none" stroke="black" points="673,-252 523.5,-252 523.5,-216 673,-216 673,-252"/>
<text text-anchor="middle" x="598.25" y="-228.95" font-family="Times,serif" font-size="14.00">pythonProject.tasks.utils</text>
</g>
<!-- pythonProject.api_routes&#45;&gt;pythonProject.tasks.utils -->
<g id="edge7" class="edge">
<title>pythonProject.api_routes&#45;&gt;pythonProject.tasks.utils</title>
<path fill="none" stroke="black" d="M411.44,-180.48C446.18,-190.25 489.65,-202.47 525.91,-212.66"/>
<polygon fill="black" stroke="black" points="535.25,-215.29 524.4,-216.91 531.61,-214.27 525.62,-212.58 525.62,-212.58 525.62,-212.58 531.61,-214.27 526.84,-208.25 535.25,-215.29"/>
</g>
<!-- pythonProject.app -->
<g id="node4" class="node">
<title>pythonProject.app</title>
<polygon fill="none" stroke="black" points="510.75,-108 395.75,-108 395.75,-72 510.75,-72 510.75,-108"/>
<text text-anchor="middle" x="453.25" y="-84.95" font-family="Times,serif" font-size="14.00">pythonProject.app</text>
</g>
<!-- pythonProject.app&#45;&gt;pythonProject.all_models -->
<g id="edge8" class="edge">
<title>pythonProject.app&#45;&gt;pythonProject.all_models</title>
<path fill="none" stroke="black" d="M395.3,-103.68C347.01,-114.24 277.43,-129.46 222.1,-141.56"/>
<polygon fill="black" stroke="black" points="212.43,-143.68 221.24,-137.15 216.12,-142.87 222.2,-141.54 222.2,-141.54 222.2,-141.54 216.12,-142.87 223.16,-145.94 212.43,-143.68"/>
</g>
<!-- pythonProject.app&#45;&gt;pythonProject.api_routes -->
<g id="edge9" class="edge">
<title>pythonProject.app&#45;&gt;pythonProject.api_routes</title>
<path fill="none" stroke="black" d="M427.27,-108.48C414.15,-117.32 398.04,-128.16 383.87,-137.7"/>
<polygon fill="black" stroke="black" points="375.91,-143.06 381.69,-133.74 379.04,-140.95 384.2,-137.48 384.2,-137.48 384.2,-137.48 379.04,-140.95 386.71,-141.21 375.91,-143.06"/>
</g>
<!-- pythonProject.app&#45;&gt;pythonProject.extensions -->
<g id="edge10" class="edge">
<title>pythonProject.app&#45;&gt;pythonProject.extensions</title>
<path fill="none" stroke="black" d="M395.56,-94.36C288.74,-101.16 68.94,-118.17 46.25,-144 -4.9,-202.24 36.43,-302.43 61.12,-350.18"/>
<polygon fill="black" stroke="black" points="65.67,-358.73 57,-352.01 63.89,-355.39 60.97,-349.9 60.97,-349.9 60.97,-349.9 63.89,-355.39 64.95,-347.79 65.67,-358.73"/>
</g>
<!-- pythonProject.app&#45;&gt;pythonProject.forms -->
<g id="edge11" class="edge">
<title>pythonProject.app&#45;&gt;pythonProject.forms</title>
<path fill="none" stroke="black" d="M451.78,-108.41C449.74,-132.5 446.05,-176.25 443.62,-204.97"/>
<polygon fill="black" stroke="black" points="442.8,-214.68 439.16,-204.33 443.12,-210.91 443.64,-204.71 443.64,-204.71 443.64,-204.71 443.12,-210.91 448.12,-205.09 442.8,-214.68"/>
</g>
<!-- pythonProject.logging_config -->
<g id="node14" class="node">
<title>pythonProject.logging_config</title>
<polygon fill="none" stroke="black" points="977.25,-180 799.25,-180 799.25,-144 977.25,-144 977.25,-180"/>
<text text-anchor="middle" x="888.25" y="-156.95" font-family="Times,serif" font-size="14.00">pythonProject.logging_config</text>
</g>
<!-- pythonProject.app&#45;&gt;pythonProject.logging_config -->
<g id="edge12" class="edge">
<title>pythonProject.app&#45;&gt;pythonProject.logging_config</title>
<path fill="none" stroke="black" d="M511.14,-99.82C576.01,-109.77 684.63,-126.61 787.86,-143.62"/>
<polygon fill="black" stroke="black" points="797.6,-145.22 787,-148.04 793.87,-144.61 787.73,-143.6 787.73,-143.6 787.73,-143.6 793.87,-144.61 788.46,-139.16 797.6,-145.22"/>
</g>
<!-- pythonProject.page_routes -->
<g id="node16" class="node">
<title>pythonProject.page_routes</title>
<polygon fill="none" stroke="black" points="781.62,-180 620.88,-180 620.88,-144 781.62,-144 781.62,-180"/>
<text text-anchor="middle" x="701.25" y="-156.95" font-family="Times,serif" font-size="14.00">pythonProject.page_routes</text>
</g>
<!-- pythonProject.app&#45;&gt;pythonProject.page_routes -->
<g id="edge13" class="edge">
<title>pythonProject.app&#45;&gt;pythonProject.page_routes</title>
<path fill="none" stroke="black" d="M511.08,-107.32C546.27,-117.26 591.52,-130.03 629.05,-140.62"/>
<polygon fill="black" stroke="black" points="638.25,-143.22 627.4,-144.83 634.61,-142.19 628.62,-140.5 628.62,-140.5 628.62,-140.5 634.61,-142.19 629.85,-136.17 638.25,-143.22"/>
</g>
<!-- pythonProject.tasks.routes -->
<g id="node19" class="node">
<title>pythonProject.tasks.routes</title>
<polygon fill="none" stroke="black" points="1154.88,-180 995.62,-180 995.62,-144 1154.88,-144 1154.88,-180"/>
<text text-anchor="middle" x="1075.25" y="-156.95" font-family="Times,serif" font-size="14.00">pythonProject.tasks.routes</text>
</g>
<!-- pythonProject.app&#45;&gt;pythonProject.tasks.routes -->
<g id="edge14" class="edge">
<title>pythonProject.app&#45;&gt;pythonProject.tasks.routes</title>
<path fill="none" stroke="black" d="M511.03,-95.04C607.12,-102.13 805.99,-118.39 984.35,-143.8"/>
<polygon fill="black" stroke="black" points="994.05,-145.2 983.51,-148.23 990.3,-144.66 984.15,-143.77 984.15,-143.77 984.15,-143.77 990.3,-144.66 984.79,-139.32 994.05,-145.2"/>
</g>
<!-- pythonProject.charts -->
<g id="node5" class="node">
<title>pythonProject.charts</title>
<polygon fill="none" stroke="black" points="753.12,-36 625.38,-36 625.38,0 753.12,0 753.12,-36"/>
<text text-anchor="middle" x="689.25" y="-12.95" font-family="Times,serif" font-size="14.00">pythonProject.charts</text>
</g>
<!-- pythonProject.charts.burnup_chart -->
<g id="node6" class="node">
<title>pythonProject.charts.burnup_chart</title>
<polygon fill="none" stroke="black" points="1357,-252 1153.5,-252 1153.5,-216 1357,-216 1357,-252"/>
<text text-anchor="middle" x="1255.25" y="-228.95" font-family="Times,serif" font-size="14.00">pythonProject.charts.burnup_chart</text>
</g>
<!-- pythonProject.charts.contributor_breakdown_chart -->
<g id="node7" class="node">
<title>pythonProject.charts.contributor_breakdown_chart</title>
<polygon fill="none" stroke="black" points="1705.25,-252 1413.25,-252 1413.25,-216 1705.25,-216 1705.25,-252"/>
<text text-anchor="middle" x="1559.25" y="-228.95" font-family="Times,serif" font-size="14.00">pythonProject.charts.contributor_breakdown_chart</text>
</g>
<!-- pythonProject.charts.project_breakdown_chart -->
<g id="node8" class="node">
<title>pythonProject.charts.project_breakdown_chart</title>
<polygon fill="none" stroke="black" points="1135,-252 865.5,-252 865.5,-216 1135,-216 1135,-252"/>
<text text-anchor="middle" x="1000.25" y="-228.95" font-family="Times,serif" font-size="14.00">pythonProject.charts.project_breakdown_chart</text>
</g>
<!-- pythonProject.export_schema -->
<g id="node9" class="node">
<title>pythonProject.export_schema</title>
<polygon fill="none" stroke="black" points="455.25,-36 277.25,-36 277.25,0 455.25,0 455.25,-36"/>
<text text-anchor="middle" x="366.25" y="-12.95" font-family="Times,serif" font-size="14.00">pythonProject.export_schema</text>
</g>
<!-- pythonProject.export_schema&#45;&gt;pythonProject.app -->
<g id="edge15" class="edge">
<title>pythonProject.export_schema&#45;&gt;pythonProject.app</title>
<path fill="none" stroke="black" d="M387.76,-36.3C398.42,-44.89 411.48,-55.39 423.13,-64.76"/>
<polygon fill="black" stroke="black" points="430.74,-70.89 420.13,-68.13 427.79,-68.52 422.95,-64.62 422.95,-64.62 422.95,-64.62 427.79,-68.52 425.77,-61.11 430.74,-70.89"/>
</g>
<!-- pythonProject.forms&#45;&gt;pythonProject.tasks.models -->
<g id="edge16" class="edge">
<title>pythonProject.forms&#45;&gt;pythonProject.tasks.models</title>
<path fill="none" stroke="black" d="M484.46,-252.48C507.67,-261.87 536.47,-273.53 561.05,-283.47"/>
<polygon fill="black" stroke="black" points="570.16,-287.16 559.21,-287.58 566.66,-285.74 560.89,-283.41 560.89,-283.41 560.89,-283.41 566.66,-285.74 562.58,-279.24 570.16,-287.16"/>
</g>
<!-- pythonProject.generate_documentation -->
<g id="node12" class="node">
<title>pythonProject.generate_documentation</title>
<polygon fill="none" stroke="black" points="999.75,-36 770.75,-36 770.75,0 999.75,0 999.75,-36"/>
<text text-anchor="middle" x="885.25" y="-12.95" font-family="Times,serif" font-size="14.00">pythonProject.generate_documentation</text>
</g>
<!-- pythonProject.init_db -->
<g id="node13" class="node">
<title>pythonProject.init_db</title>
<polygon fill="none" stroke="black" points="607.12,-36 473.38,-36 473.38,0 607.12,0 607.12,-36"/>
<text text-anchor="middle" x="540.25" y="-12.95" font-family="Times,serif" font-size="14.00">pythonProject.init_db</text>
</g>
<!-- pythonProject.init_db&#45;&gt;pythonProject.app -->
<g id="edge17" class="edge">
<title>pythonProject.init_db&#45;&gt;pythonProject.app</title>
<path fill="none" stroke="black" d="M518.74,-36.3C508.08,-44.89 495.02,-55.39 483.37,-64.76"/>
<polygon fill="black" stroke="black" points="475.76,-70.89 480.73,-61.11 478.71,-68.52 483.55,-64.62 483.55,-64.62 483.55,-64.62 478.71,-68.52 486.37,-68.13 475.76,-70.89"/>
</g>
<!-- pythonProject.models&#45;&gt;pythonProject.extensions -->
<g id="edge18" class="edge">
<title>pythonProject.models&#45;&gt;pythonProject.extensions</title>
<path fill="none" stroke="black" d="M218.8,-324.48C192.97,-334 160.82,-345.84 133.6,-355.87"/>
<polygon fill="black" stroke="black" points="124.57,-359.2 132.4,-351.52 128.12,-357.89 133.96,-355.74 133.96,-355.74 133.96,-355.74 128.12,-357.89 135.51,-359.96 124.57,-359.2"/>
</g>
<!-- pythonProject.page_routes&#45;&gt;pythonProject.charts.burnup_chart -->
<g id="edge19" class="edge">
<title>pythonProject.page_routes&#45;&gt;pythonProject.charts.burnup_chart</title>
<path fill="none" stroke="black" d="M781.73,-178.7C784.6,-179.15 787.45,-179.59 790.25,-180 943.22,-202.34 985.49,-196.32 1142.08,-215.77"/>
<polygon fill="black" stroke="black" points="1151.85,-217 1141.37,-220.21 1148.1,-216.53 1141.93,-215.75 1141.93,-215.75 1141.93,-215.75 1148.1,-216.53 1142.49,-211.28 1151.85,-217"/>
</g>
<!-- pythonProject.page_routes&#45;&gt;pythonProject.charts.contributor_breakdown_chart -->
<g id="edge20" class="edge">
<title>pythonProject.page_routes&#45;&gt;pythonProject.charts.contributor_breakdown_chart</title>
<path fill="none" stroke="black" d="M781.71,-178.85C784.59,-179.27 787.44,-179.65 790.25,-180 1059.31,-213.51 1129.03,-193.67 1399.25,-216 1400.09,-216.07 1400.92,-216.14 1401.76,-216.21"/>
<polygon fill="black" stroke="black" points="1411.58,-217.06 1401.23,-220.68 1407.81,-216.73 1401.61,-216.2 1401.61,-216.2 1401.61,-216.2 1407.81,-216.73 1402,-211.71 1411.58,-217.06"/>
</g>
<!-- pythonProject.page_routes&#45;&gt;pythonProject.charts.project_breakdown_chart -->
<g id="edge21" class="edge">
<title>pythonProject.page_routes&#45;&gt;pythonProject.charts.project_breakdown_chart</title>
<path fill="none" stroke="black" d="M775.93,-180.48C818.2,-190.38 871.21,-202.79 915.09,-213.06"/>
<polygon fill="black" stroke="black" points="924.56,-215.28 913.8,-217.38 920.88,-214.42 914.82,-213 914.82,-213 914.82,-213 920.88,-214.42 915.85,-208.62 924.56,-215.28"/>
</g>
<!-- pythonProject.page_routes&#45;&gt;pythonProject.forms -->
<g id="edge22" class="edge">
<title>pythonProject.page_routes&#45;&gt;pythonProject.forms</title>
<path fill="none" stroke="black" d="M636.31,-180.48C599.74,-190.33 553.91,-202.67 515.87,-212.91"/>
<polygon fill="black" stroke="black" points="506.54,-215.42 515.02,-208.48 510.19,-214.44 516.19,-212.82 516.19,-212.82 516.19,-212.82 510.19,-214.44 517.36,-217.17 506.54,-215.42"/>
</g>
<!-- pythonProject.page_routes&#45;&gt;pythonProject.models -->
<g id="edge23" class="edge">
<title>pythonProject.page_routes&#45;&gt;pythonProject.models</title>
<path fill="none" stroke="black" d="M702.95,-180.23C703.91,-200.54 702.02,-233.82 682.25,-252 657.94,-274.36 459.08,-291.65 345.34,-299.82"/>
<polygon fill="black" stroke="black" points="335.48,-300.52 345.14,-295.33 339.26,-300.25 345.46,-299.81 345.46,-299.81 345.46,-299.81 339.26,-300.25 345.78,-304.3 335.48,-300.52"/>
</g>
<!-- pythonProject.page_routes&#45;&gt;pythonProject.tasks.models -->
<g id="edge24" class="edge">
<title>pythonProject.page_routes&#45;&gt;pythonProject.tasks.models</title>
<path fill="none" stroke="black" d="M781.71,-178.84C784.59,-179.26 787.44,-179.65 790.25,-180 853.87,-188.03 1322.34,-169.26 1366.25,-216 1377.21,-227.66 1377.16,-240.3 1366.25,-252 1322.31,-299.14 900.88,-305.12 708.81,-305.37"/>
<polygon fill="black" stroke="black" points="698.82,-305.37 708.82,-300.87 702.61,-305.37 708.82,-305.37 708.82,-305.37 708.82,-305.37 702.61,-305.37 708.83,-309.87 698.82,-305.37"/>
</g>
<!-- pythonProject.page_routes&#45;&gt;pythonProject.tasks.utils -->
<g id="edge25" class="edge">
<title>pythonProject.page_routes&#45;&gt;pythonProject.tasks.utils</title>
<path fill="none" stroke="black" d="M675.52,-180.48C662.52,-189.32 646.57,-200.16 632.54,-209.7"/>
<polygon fill="black" stroke="black" points="624.66,-215.05 630.4,-205.71 627.78,-212.93 632.93,-209.43 632.93,-209.43 632.93,-209.43 627.78,-212.93 635.46,-213.16 624.66,-215.05"/>
</g>
<!-- pythonProject.utils -->
<g id="node23" class="node">
<title>pythonProject.utils</title>
<polygon fill="none" stroke="black" points="847.62,-252 728.88,-252 728.88,-216 847.62,-216 847.62,-252"/>
<text text-anchor="middle" x="788.25" y="-228.95" font-family="Times,serif" font-size="14.00">pythonProject.utils</text>
</g>
<!-- pythonProject.page_routes&#45;&gt;pythonProject.utils -->
<g id="edge26" class="edge">
<title>pythonProject.page_routes&#45;&gt;pythonProject.utils</title>
<path fill="none" stroke="black" d="M722.76,-180.3C733.42,-188.89 746.48,-199.39 758.13,-208.76"/>
<polygon fill="black" stroke="black" points="765.74,-214.89 755.13,-212.13 762.79,-212.52 757.95,-208.62 757.95,-208.62 757.95,-208.62 762.79,-212.52 760.77,-205.11 765.74,-214.89"/>
</g>
<!-- pythonProject.tasks -->
<g id="node17" class="node">
<title>pythonProject.tasks</title>
<polygon fill="none" stroke="black" points="283.5,-252 161,-252 161,-216 283.5,-216 283.5,-252"/>
<text text-anchor="middle" x="222.25" y="-228.95" font-family="Times,serif" font-size="14.00">pythonProject.tasks</text>
</g>
<!-- pythonProject.tasks&#45;&gt;pythonProject.models -->
<g id="edge27" class="edge">
<title>pythonProject.tasks&#45;&gt;pythonProject.models</title>
<path fill="none" stroke="black" d="M233.13,-252.3C238.08,-260.19 244.06,-269.7 249.56,-278.45"/>
<polygon fill="black" stroke="black" points="254.85,-286.86 245.72,-280.79 252.84,-283.66 249.53,-278.4 249.53,-278.4 249.53,-278.4 252.84,-283.66 253.34,-276 254.85,-286.86"/>
</g>
<!-- pythonProject.test_task_operations -->
<g id="node21" class="node">
<title>pythonProject.test_task_operations</title>
<polygon fill="none" stroke="black" points="1223.12,-36 1017.38,-36 1017.38,0 1223.12,0 1223.12,-36"/>
<text text-anchor="middle" x="1120.25" y="-12.95" font-family="Times,serif" font-size="14.00">pythonProject.test_task_operations</text>
</g>
<!-- pythonProject.test_task_table -->
<g id="node22" class="node">
<title>pythonProject.test_task_table</title>
<polygon fill="none" stroke="black" points="1417.12,-36 1241.38,-36 1241.38,0 1417.12,0 1417.12,-36"/>
<text text-anchor="middle" x="1329.25" y="-12.95" font-family="Times,serif" font-size="14.00">pythonProject.test_task_table</text>
</g>
<!-- pythonProject.utils&#45;&gt;pythonProject.models -->
<g id="edge28" class="edge">
<title>pythonProject.utils&#45;&gt;pythonProject.models</title>
<path fill="none" stroke="black" d="M728.6,-249.46C724.1,-250.38 719.61,-251.24 715.25,-252 586.47,-274.52 435.21,-290.17 345.23,-298.36"/>
<polygon fill="black" stroke="black" points="335.51,-299.24 345.06,-293.86 339.27,-298.9 345.46,-298.34 345.46,-298.34 345.46,-298.34 339.27,-298.9 345.87,-302.82 335.51,-299.24"/>
</g>
<!-- pythonProject.utils&#45;&gt;pythonProject.tasks.models -->
<g id="edge29" class="edge">
<title>pythonProject.utils&#45;&gt;pythonProject.tasks.models</title>
<path fill="none" stroke="black" d="M744.79,-252.48C721.45,-261.87 692.48,-273.53 667.76,-283.47"/>
<polygon fill="black" stroke="black" points="658.59,-287.16 666.18,-279.26 662.09,-285.75 667.86,-283.43 667.86,-283.43 667.86,-283.43 662.09,-285.75 669.54,-287.61 658.59,-287.16"/>
</g>
</g>
</svg>
