<svg xmlns="http://www.w3.org/2000/svg" xmlns:xlink="http://www.w3.org/1999/xlink" contentStyleType="text/css" height="366px" preserveAspectRatio="none" style="width:1089px;height:366px;background:#FFFFFF;" version="1.1" viewBox="0 0 1089 366" width="1089px" zoomAndPan="magnify"><title>Batch Update Tasks Interaction Flow with File Interactions</title><defs/><g><text fill="#000000" font-family="sans-serif" font-size="14" font-weight="bold" lengthAdjust="spacing" textLength="419.8359" x="334.0295" y="28.5352">Batch Update Tasks Interaction Flow with File Interactions</text><line style="stroke:#181818;stroke-width:0.5;stroke-dasharray:5.0,5.0;" x1="23" x2="23" y1="118.9766" y2="285.5293"/><line style="stroke:#181818;stroke-width:0.5;stroke-dasharray:5.0,5.0;" x1="254.0469" x2="254.0469" y1="118.9766" y2="285.5293"/><line style="stroke:#181818;stroke-width:0.5;stroke-dasharray:5.0,5.0;" x1="627.9897" x2="627.9897" y1="118.9766" y2="285.5293"/><line style="stroke:#181818;stroke-width:0.5;stroke-dasharray:5.0,5.0;" x1="1041.8745" x2="1041.8745" y1="118.9766" y2="285.5293"/><text fill="#000000" font-family="sans-serif" font-size="14" lengthAdjust="spacing" textLength="30.3652" x="5" y="116.0234">User</text><ellipse cx="23.1826" cy="50.9883" fill="#E2E2F0" rx="8" ry="8" style="stroke:#181818;stroke-width:0.5;"/><path d="M23.1826,58.9883 L23.1826,85.9883 M10.1826,66.9883 L36.1826,66.9883 M23.1826,85.9883 L10.1826,100.9883 M23.1826,85.9883 L36.1826,100.9883 " fill="none" style="stroke:#181818;stroke-width:0.5;"/><text fill="#000000" font-family="sans-serif" font-size="14" lengthAdjust="spacing" textLength="30.3652" x="5" y="298.0645">User</text><ellipse cx="23.1826" cy="309.5176" fill="#E2E2F0" rx="8" ry="8" style="stroke:#181818;stroke-width:0.5;"/><path d="M23.1826,317.5176 L23.1826,344.5176 M10.1826,325.5176 L36.1826,325.5176 M23.1826,344.5176 L10.1826,359.5176 M23.1826,344.5176 L36.1826,359.5176 " fill="none" style="stroke:#181818;stroke-width:0.5;"/><rect fill="#E2E2F0" height="30.4883" rx="2.5" ry="2.5" style="stroke:#181818;stroke-width:0.5;" width="146.4941" x="181.0469" y="87.4883"/><text fill="#000000" font-family="sans-serif" font-size="14" lengthAdjust="spacing" textLength="132.4941" x="188.0469" y="108.0234">Frontend (HTML/JS)</text><rect fill="#E2E2F0" height="30.4883" rx="2.5" ry="2.5" style="stroke:#181818;stroke-width:0.5;" width="146.4941" x="181.0469" y="284.5293"/><text fill="#000000" font-family="sans-serif" font-size="14" lengthAdjust="spacing" textLength="132.4941" x="188.0469" y="305.0645">Frontend (HTML/JS)</text><rect fill="#E2E2F0" height="30.4883" rx="2.5" ry="2.5" style="stroke:#181818;stroke-width:0.5;" width="77.7451" x="589.9897" y="87.4883"/><text fill="#000000" font-family="sans-serif" font-size="14" lengthAdjust="spacing" textLength="63.7451" x="596.9897" y="108.0234">routes.py</text><rect fill="#E2E2F0" height="30.4883" rx="2.5" ry="2.5" style="stroke:#181818;stroke-width:0.5;" width="77.7451" x="589.9897" y="284.5293"/><text fill="#000000" font-family="sans-serif" font-size="14" lengthAdjust="spacing" textLength="63.7451" x="596.9897" y="305.0645">routes.py</text><rect fill="#E2E2F0" height="30.4883" rx="2.5" ry="2.5" style="stroke:#181818;stroke-width:0.5;" width="84.0205" x="999.8745" y="87.4883"/><text fill="#000000" font-family="sans-serif" font-size="14" lengthAdjust="spacing" textLength="70.0205" x="1006.8745" y="108.0234">models.py</text><rect fill="#E2E2F0" height="30.4883" rx="2.5" ry="2.5" style="stroke:#181818;stroke-width:0.5;" width="84.0205" x="999.8745" y="284.5293"/><text fill="#000000" font-family="sans-serif" font-size="14" lengthAdjust="spacing" textLength="70.0205" x="1006.8745" y="305.0645">models.py</text><polygon fill="#181818" points="242.2939,146.2871,252.2939,150.2871,242.2939,154.2871,246.2939,150.2871" style="stroke:#181818;stroke-width:1;"/><line style="stroke:#181818;stroke-width:1;" x1="23.1826" x2="248.2939" y1="150.2871" y2="150.2871"/><text fill="#000000" font-family="sans-serif" font-size="13" lengthAdjust="spacing" textLength="207.1113" x="30.1826" y="145.5449">Submit selected tasks and action</text><polygon fill="#181818" points="616.8623,175.5977,626.8623,179.5977,616.8623,183.5977,620.8623,179.5977" style="stroke:#181818;stroke-width:1;"/><line style="stroke:#181818;stroke-width:1;" x1="254.2939" x2="622.8623" y1="179.5977" y2="179.5977"/><text fill="#000000" font-family="sans-serif" font-size="13" lengthAdjust="spacing" textLength="350.5684" x="261.2939" y="174.8555">POST /tasks/batch_update (routes.py: Handles request)</text><polygon fill="#181818" points="1029.8848,204.9082,1039.8848,208.9082,1029.8848,212.9082,1033.8848,208.9082" style="stroke:#181818;stroke-width:1;"/><line style="stroke:#181818;stroke-width:1;" x1="628.8623" x2="1035.8848" y1="208.9082" y2="208.9082"/><text fill="#000000" font-family="sans-serif" font-size="13" lengthAdjust="spacing" textLength="389.0225" x="635.8623" y="204.166">Retrieve tasks and perform updates (models.py: Apply action)</text><polygon fill="#181818" points="639.8623,234.2188,629.8623,238.2188,639.8623,242.2188,635.8623,238.2188" style="stroke:#181818;stroke-width:1;"/><line style="stroke:#181818;stroke-width:1;stroke-dasharray:2.0,2.0;" x1="633.8623" x2="1040.8848" y1="238.2188" y2="238.2188"/><text fill="#000000" font-family="sans-serif" font-size="13" lengthAdjust="spacing" textLength="275.9644" x="645.8623" y="233.4766">Save changes (models.py: Commit changes)</text><polygon fill="#181818" points="265.2939,263.5293,255.2939,267.5293,265.2939,271.5293,261.2939,267.5293" style="stroke:#181818;stroke-width:1;"/><line style="stroke:#181818;stroke-width:1;stroke-dasharray:2.0,2.0;" x1="259.2939" x2="627.8623" y1="267.5293" y2="267.5293"/><text fill="#000000" font-family="sans-serif" font-size="13" lengthAdjust="spacing" textLength="318.2778" x="271.2939" y="262.7871">Return success as JSON (routes.py: Response sent)</text><!--SRC=[NP5FRy8m3CNl-HGM9tfWlNEOj3z236rZed2UJEgDQ6sInUuGttvk2ntTBOb_Vdv-4ISLmJsAFS0kbYW4M-GlXYSlbD2A2nuMLJZ2qSa15axfgn8ReuUGOCUKJCGaphg8Nc2oI44vNy9qkNrvpbT5DW5ak3oFuHGQ8Rw9fuxPTBSnKOUIge5uHC4zCXdJ3eRPxQ0BSoYQVUq4c2goGYL8jn1ghJTj1bRx-bdQzROkjf1tRBvlytXl-ZocWxavB5MbKZpHTqCicJctgz35aafjI9AZ7xgQ72bzX5H3hyam7VQPmrsCrUdiBJE3pkpQNO4gPm_eF_yrFuIwNVPS-ZCqZaGTDSa3DzOISvlWgbY_ZbRR44VzKDBSl6I_]--></g></svg>