<svg xmlns="http://www.w3.org/2000/svg" xmlns:xlink="http://www.w3.org/1999/xlink" contentStyleType="text/css" height="395px" preserveAspectRatio="none" style="width:1104px;height:395px;background:#FFFFFF;" version="1.1" viewBox="0 0 1104 395" width="1104px" zoomAndPan="magnify"><title>Reorder Subtasks Interaction Flow with File Interactions</title><defs/><g><text fill="#000000" font-family="sans-serif" font-size="14" font-weight="bold" lengthAdjust="spacing" textLength="404.3799" x="349.178" y="28.5352">Reorder Subtasks Interaction Flow with File Interactions</text><line style="stroke:#181818;stroke-width:0.5;stroke-dasharray:5.0,5.0;" x1="23" x2="23" y1="118.9766" y2="314.8398"/><line style="stroke:#181818;stroke-width:0.5;stroke-dasharray:5.0,5.0;" x1="206.8774" x2="206.8774" y1="118.9766" y2="314.8398"/><line style="stroke:#181818;stroke-width:0.5;stroke-dasharray:5.0,5.0;" x1="676.7271" x2="676.7271" y1="118.9766" y2="314.8398"/><line style="stroke:#181818;stroke-width:0.5;stroke-dasharray:5.0,5.0;" x1="1056.7153" x2="1056.7153" y1="118.9766" y2="314.8398"/><text fill="#000000" font-family="sans-serif" font-size="14" lengthAdjust="spacing" textLength="30.3652" x="5" y="116.0234">User</text><ellipse cx="23.1826" cy="50.9883" fill="#E2E2F0" rx="8" ry="8" style="stroke:#181818;stroke-width:0.5;"/><path d="M23.1826,58.9883 L23.1826,85.9883 M10.1826,66.9883 L36.1826,66.9883 M23.1826,85.9883 L10.1826,100.9883 M23.1826,85.9883 L36.1826,100.9883 " fill="none" style="stroke:#181818;stroke-width:0.5;"/><text fill="#000000" font-family="sans-serif" font-size="14" lengthAdjust="spacing" textLength="30.3652" x="5" y="327.375">User</text><ellipse cx="23.1826" cy="338.8281" fill="#E2E2F0" rx="8" ry="8" style="stroke:#181818;stroke-width:0.5;"/><path d="M23.1826,346.8281 L23.1826,373.8281 M10.1826,354.8281 L36.1826,354.8281 M23.1826,373.8281 L10.1826,388.8281 M23.1826,373.8281 L36.1826,388.8281 " fill="none" style="stroke:#181818;stroke-width:0.5;"/><rect fill="#E2E2F0" height="30.4883" rx="2.5" ry="2.5" style="stroke:#181818;stroke-width:0.5;" width="146.4941" x="133.8774" y="87.4883"/><text fill="#000000" font-family="sans-serif" font-size="14" lengthAdjust="spacing" textLength="132.4941" x="140.8774" y="108.0234">Frontend (HTML/JS)</text><rect fill="#E2E2F0" height="30.4883" rx="2.5" ry="2.5" style="stroke:#181818;stroke-width:0.5;" width="146.4941" x="133.8774" y="313.8398"/><text fill="#000000" font-family="sans-serif" font-size="14" lengthAdjust="spacing" textLength="132.4941" x="140.8774" y="334.375">Frontend (HTML/JS)</text><rect fill="#E2E2F0" height="30.4883" rx="2.5" ry="2.5" style="stroke:#181818;stroke-width:0.5;" width="77.7451" x="638.7271" y="87.4883"/><text fill="#000000" font-family="sans-serif" font-size="14" lengthAdjust="spacing" textLength="63.7451" x="645.7271" y="108.0234">routes.py</text><rect fill="#E2E2F0" height="30.4883" rx="2.5" ry="2.5" style="stroke:#181818;stroke-width:0.5;" width="77.7451" x="638.7271" y="313.8398"/><text fill="#000000" font-family="sans-serif" font-size="14" lengthAdjust="spacing" textLength="63.7451" x="645.7271" y="334.375">routes.py</text><rect fill="#E2E2F0" height="30.4883" rx="2.5" ry="2.5" style="stroke:#181818;stroke-width:0.5;" width="84.0205" x="1014.7153" y="87.4883"/><text fill="#000000" font-family="sans-serif" font-size="14" lengthAdjust="spacing" textLength="70.0205" x="1021.7153" y="108.0234">models.py</text><rect fill="#E2E2F0" height="30.4883" rx="2.5" ry="2.5" style="stroke:#181818;stroke-width:0.5;" width="84.0205" x="1014.7153" y="313.8398"/><text fill="#000000" font-family="sans-serif" font-size="14" lengthAdjust="spacing" textLength="70.0205" x="1021.7153" y="334.375">models.py</text><polygon fill="#181818" points="195.1245,146.2871,205.1245,150.2871,195.1245,154.2871,199.1245,150.2871" style="stroke:#181818;stroke-width:1;"/><line style="stroke:#181818;stroke-width:1;" x1="23.1826" x2="201.1245" y1="150.2871" y2="150.2871"/><text fill="#000000" font-family="sans-serif" font-size="13" lengthAdjust="spacing" textLength="151.5503" x="30.1826" y="145.5449">Drag and drop subtasks</text><polygon fill="#181818" points="665.5996,175.5977,675.5996,179.5977,665.5996,183.5977,669.5996,179.5977" style="stroke:#181818;stroke-width:1;"/><line style="stroke:#181818;stroke-width:1;" x1="207.1245" x2="671.5996" y1="179.5977" y2="179.5977"/><text fill="#000000" font-family="sans-serif" font-size="13" lengthAdjust="spacing" textLength="446.4751" x="214.1245" y="174.8555">POST /tasks/reorder_subtasks/&lt;task_id&gt; (routes.py: Handles request)</text><polygon fill="#181818" points="1044.7256,204.9082,1054.7256,208.9082,1044.7256,212.9082,1048.7256,208.9082" style="stroke:#181818;stroke-width:1;"/><line style="stroke:#181818;stroke-width:1;" x1="677.5996" x2="1050.7256" y1="208.9082" y2="208.9082"/><text fill="#000000" font-family="sans-serif" font-size="13" lengthAdjust="spacing" textLength="355.126" x="684.5996" y="204.166">Update subtasks (models.py: Set sort_order=new_order)</text><polygon fill="#181818" points="688.5996,234.2188,678.5996,238.2188,688.5996,242.2188,684.5996,238.2188" style="stroke:#181818;stroke-width:1;"/><line style="stroke:#181818;stroke-width:1;stroke-dasharray:2.0,2.0;" x1="682.5996" x2="1055.7256" y1="238.2188" y2="238.2188"/><text fill="#000000" font-family="sans-serif" font-size="13" lengthAdjust="spacing" textLength="275.9644" x="694.5996" y="233.4766">Save changes (models.py: Commit changes)</text><polygon fill="#181818" points="218.1245,263.5293,208.1245,267.5293,218.1245,271.5293,214.1245,267.5293" style="stroke:#181818;stroke-width:1;"/><line style="stroke:#181818;stroke-width:1;stroke-dasharray:2.0,2.0;" x1="212.1245" x2="676.5996" y1="267.5293" y2="267.5293"/><text fill="#000000" font-family="sans-serif" font-size="13" lengthAdjust="spacing" textLength="318.2778" x="224.1245" y="262.7871">Return success as JSON (routes.py: Response sent)</text><polygon fill="#181818" points="34.1826,292.8398,24.1826,296.8398,34.1826,300.8398,30.1826,296.8398" style="stroke:#181818;stroke-width:1;"/><line style="stroke:#181818;stroke-width:1;" x1="28.1826" x2="206.1245" y1="296.8398" y2="296.8398"/><text fill="#000000" font-family="sans-serif" font-size="13" lengthAdjust="spacing" textLength="159.9419" x="40.1826" y="292.0977">Update UI with new order</text><!--SRC=[LP91Ry8m38Nl-HKM9pYmtgkDon02j8sfXJCohGNHsgHptA7z-vcMPlHKD_do_FmIiL8HPEIv98QyFGc6hm0R9yHOYFKELfM_mjNA1LPMsOUjO8mMdk4GY4s3BBQm3Jg1oOgzSgw4wNh__fPiyza4CC2mF8RPjqBXgVdjcApx6nErBwcAn185JnZ8c5jZc2-YBgImP3m3QbcoRo3S9pAHKBhleEpdBjz3qW49znaSXnF9y-rpjEK2fj5W2ckLhlGmqtTBGMRcBgQoWoqLFZGb2iNkC8q3f92JGF0inwxVYwDhNyrC59W_cipnXw2ue3lJMEZLrxMLOUlVoJYFZAHbfrQAWaAunRVDTn-ZcJ8AZTwc-YMd4pr6rGKSvpbi-eUWdg7p_0S0]--></g></svg>