<svg xmlns="http://www.w3.org/2000/svg" xmlns:xlink="http://www.w3.org/1999/xlink" contentStyleType="text/css" height="395px" preserveAspectRatio="none" style="width:955px;height:395px;background:#FFFFFF;" version="1.1" viewBox="0 0 955 395" width="955px" zoomAndPan="magnify"><title>Search Tasks Interaction Flow with File Interactions</title><defs/><g><text fill="#000000" font-family="sans-serif" font-size="14" font-weight="bold" lengthAdjust="spacing" textLength="372.3262" x="290.5564" y="28.5352">Search Tasks Interaction Flow with File Interactions</text><line style="stroke:#181818;stroke-width:0.5;stroke-dasharray:5.0,5.0;" x1="23" x2="23" y1="118.9766" y2="314.8398"/><line style="stroke:#181818;stroke-width:0.5;stroke-dasharray:5.0,5.0;" x1="192.9253" x2="192.9253" y1="118.9766" y2="314.8398"/><line style="stroke:#181818;stroke-width:0.5;stroke-dasharray:5.0,5.0;" x1="571.4321" x2="571.4321" y1="118.9766" y2="314.8398"/><line style="stroke:#181818;stroke-width:0.5;stroke-dasharray:5.0,5.0;" x1="907.4185" x2="907.4185" y1="118.9766" y2="314.8398"/><text fill="#000000" font-family="sans-serif" font-size="14" lengthAdjust="spacing" textLength="30.3652" x="5" y="116.0234">User</text><ellipse cx="23.1826" cy="50.9883" fill="#E2E2F0" rx="8" ry="8" style="stroke:#181818;stroke-width:0.5;"/><path d="M23.1826,58.9883 L23.1826,85.9883 M10.1826,66.9883 L36.1826,66.9883 M23.1826,85.9883 L10.1826,100.9883 M23.1826,85.9883 L36.1826,100.9883 " fill="none" style="stroke:#181818;stroke-width:0.5;"/><text fill="#000000" font-family="sans-serif" font-size="14" lengthAdjust="spacing" textLength="30.3652" x="5" y="327.375">User</text><ellipse cx="23.1826" cy="338.8281" fill="#E2E2F0" rx="8" ry="8" style="stroke:#181818;stroke-width:0.5;"/><path d="M23.1826,346.8281 L23.1826,373.8281 M10.1826,354.8281 L36.1826,354.8281 M23.1826,373.8281 L10.1826,388.8281 M23.1826,373.8281 L36.1826,388.8281 " fill="none" style="stroke:#181818;stroke-width:0.5;"/><rect fill="#E2E2F0" height="30.4883" rx="2.5" ry="2.5" style="stroke:#181818;stroke-width:0.5;" width="146.4941" x="119.9253" y="87.4883"/><text fill="#000000" font-family="sans-serif" font-size="14" lengthAdjust="spacing" textLength="132.4941" x="126.9253" y="108.0234">Frontend (HTML/JS)</text><rect fill="#E2E2F0" height="30.4883" rx="2.5" ry="2.5" style="stroke:#181818;stroke-width:0.5;" width="146.4941" x="119.9253" y="313.8398"/><text fill="#000000" font-family="sans-serif" font-size="14" lengthAdjust="spacing" textLength="132.4941" x="126.9253" y="334.375">Frontend (HTML/JS)</text><rect fill="#E2E2F0" height="30.4883" rx="2.5" ry="2.5" style="stroke:#181818;stroke-width:0.5;" width="77.7451" x="533.4321" y="87.4883"/><text fill="#000000" font-family="sans-serif" font-size="14" lengthAdjust="spacing" textLength="63.7451" x="540.4321" y="108.0234">routes.py</text><rect fill="#E2E2F0" height="30.4883" rx="2.5" ry="2.5" style="stroke:#181818;stroke-width:0.5;" width="77.7451" x="533.4321" y="313.8398"/><text fill="#000000" font-family="sans-serif" font-size="14" lengthAdjust="spacing" textLength="63.7451" x="540.4321" y="334.375">routes.py</text><rect fill="#E2E2F0" height="30.4883" rx="2.5" ry="2.5" style="stroke:#181818;stroke-width:0.5;" width="84.0205" x="865.4185" y="87.4883"/><text fill="#000000" font-family="sans-serif" font-size="14" lengthAdjust="spacing" textLength="70.0205" x="872.4185" y="108.0234">models.py</text><rect fill="#E2E2F0" height="30.4883" rx="2.5" ry="2.5" style="stroke:#181818;stroke-width:0.5;" width="84.0205" x="865.4185" y="313.8398"/><text fill="#000000" font-family="sans-serif" font-size="14" lengthAdjust="spacing" textLength="70.0205" x="872.4185" y="334.375">models.py</text><polygon fill="#181818" points="181.1724,146.2871,191.1724,150.2871,181.1724,154.2871,185.1724,150.2871" style="stroke:#181818;stroke-width:1;"/><line style="stroke:#181818;stroke-width:1;" x1="23.1826" x2="187.1724" y1="150.2871" y2="150.2871"/><text fill="#000000" font-family="sans-serif" font-size="13" lengthAdjust="spacing" textLength="117.4634" x="30.1826" y="145.5449">Enter search query</text><polygon fill="#181818" points="560.3047,175.5977,570.3047,179.5977,560.3047,183.5977,564.3047,179.5977" style="stroke:#181818;stroke-width:1;"/><line style="stroke:#181818;stroke-width:1;" x1="193.1724" x2="566.3047" y1="179.5977" y2="179.5977"/><text fill="#000000" font-family="sans-serif" font-size="13" lengthAdjust="spacing" textLength="355.1323" x="200.1724" y="174.8555">GET /tasks/search?q=&lt;query&gt; (routes.py: Search tasks)</text><polygon fill="#181818" points="895.4287,204.9082,905.4287,208.9082,895.4287,212.9082,899.4287,208.9082" style="stroke:#181818;stroke-width:1;"/><line style="stroke:#181818;stroke-width:1;" x1="572.3047" x2="901.4287" y1="208.9082" y2="208.9082"/><text fill="#000000" font-family="sans-serif" font-size="13" lengthAdjust="spacing" textLength="311.124" x="579.3047" y="204.166">Filter tasks by name (models.py: Query with ilike)</text><polygon fill="#181818" points="583.3047,234.2188,573.3047,238.2188,583.3047,242.2188,579.3047,238.2188" style="stroke:#181818;stroke-width:1;"/><line style="stroke:#181818;stroke-width:1;stroke-dasharray:2.0,2.0;" x1="577.3047" x2="906.4287" y1="238.2188" y2="238.2188"/><text fill="#000000" font-family="sans-serif" font-size="13" lengthAdjust="spacing" textLength="305.062" x="589.3047" y="233.4766">Return matching tasks (models.py: Query result)</text><polygon fill="#181818" points="204.1724,263.5293,194.1724,267.5293,204.1724,271.5293,200.1724,267.5293" style="stroke:#181818;stroke-width:1;"/><line style="stroke:#181818;stroke-width:1;stroke-dasharray:2.0,2.0;" x1="198.1724" x2="571.3047" y1="267.5293" y2="267.5293"/><text fill="#000000" font-family="sans-serif" font-size="13" lengthAdjust="spacing" textLength="302.6626" x="210.1724" y="262.7871">Return tasks as JSON (routes.py: Response sent)</text><polygon fill="#181818" points="34.1826,292.8398,24.1826,296.8398,34.1826,300.8398,30.1826,296.8398" style="stroke:#181818;stroke-width:1;"/><line style="stroke:#181818;stroke-width:1;" x1="28.1826" x2="192.1724" y1="296.8398" y2="296.8398"/><text fill="#000000" font-family="sans-serif" font-size="13" lengthAdjust="spacing" textLength="145.9897" x="40.1826" y="292.0977">Display matching tasks</text><!--SRC=[PP7BReCm44Nt_efHLh18sQCstIIqZVfGWNw0GqR5Yh69FIZYxsiCkD3k09yvldCXGHAXG6wg6afkBnPU5A7X5Gcj89Fw1ZT1DMJ2SOiZovXxq0Q-B1hMSaEY4YrN19lCQCUfCqJFvTjhSYpY3N0By-SrR7H7QE_QtZEvVriJZJwZ3CIU4pznYumD5yDs5xoGmc781tRSvjgXwLauTUHeTzpJeOI4XcsJ4NwyFjnxVWTHI9JElNWoPjEu4yqXdChrCjpf4JZre7Y348NCANmEsh538SK5OnQcjyjCEL9d53ISgbgexydutsJGTf9-qwmRc2pZiAlhM7oyhrRAqRRkxw5hIJdBiXvVQ0fxOLl9-pz9VW00]--></g></svg>