<svg xmlns="http://www.w3.org/2000/svg" xmlns:xlink="http://www.w3.org/1999/xlink" contentStyleType="text/css" height="395px" preserveAspectRatio="none" style="width:956px;height:395px;background:#FFFFFF;" version="1.1" viewBox="0 0 956 395" width="956px" zoomAndPan="magnify"><title>Available Tasks Interaction Flow with File Interactions</title><defs/><g><text fill="#000000" font-family="sans-serif" font-size="14" font-weight="bold" lengthAdjust="spacing" textLength="391.0977" x="281.5579" y="28.5352">Available Tasks Interaction Flow with File Interactions</text><line style="stroke:#181818;stroke-width:0.5;stroke-dasharray:5.0,5.0;" x1="23" x2="23" y1="118.9766" y2="314.8398"/><line style="stroke:#181818;stroke-width:0.5;stroke-dasharray:5.0,5.0;" x1="189.0532" x2="189.0532" y1="118.9766" y2="314.8398"/><line style="stroke:#181818;stroke-width:0.5;stroke-dasharray:5.0,5.0;" x1="591.9604" x2="591.9604" y1="118.9766" y2="314.8398"/><line style="stroke:#181818;stroke-width:0.5;stroke-dasharray:5.0,5.0;" x1="908.1929" x2="908.1929" y1="118.9766" y2="314.8398"/><text fill="#000000" font-family="sans-serif" font-size="14" lengthAdjust="spacing" textLength="30.3652" x="5" y="116.0234">User</text><ellipse cx="23.1826" cy="50.9883" fill="#E2E2F0" rx="8" ry="8" style="stroke:#181818;stroke-width:0.5;"/><path d="M23.1826,58.9883 L23.1826,85.9883 M10.1826,66.9883 L36.1826,66.9883 M23.1826,85.9883 L10.1826,100.9883 M23.1826,85.9883 L36.1826,100.9883 " fill="none" style="stroke:#181818;stroke-width:0.5;"/><text fill="#000000" font-family="sans-serif" font-size="14" lengthAdjust="spacing" textLength="30.3652" x="5" y="327.375">User</text><ellipse cx="23.1826" cy="338.8281" fill="#E2E2F0" rx="8" ry="8" style="stroke:#181818;stroke-width:0.5;"/><path d="M23.1826,346.8281 L23.1826,373.8281 M10.1826,354.8281 L36.1826,354.8281 M23.1826,373.8281 L10.1826,388.8281 M23.1826,373.8281 L36.1826,388.8281 " fill="none" style="stroke:#181818;stroke-width:0.5;"/><rect fill="#E2E2F0" height="30.4883" rx="2.5" ry="2.5" style="stroke:#181818;stroke-width:0.5;" width="146.4941" x="116.0532" y="87.4883"/><text fill="#000000" font-family="sans-serif" font-size="14" lengthAdjust="spacing" textLength="132.4941" x="123.0532" y="108.0234">Frontend (HTML/JS)</text><rect fill="#E2E2F0" height="30.4883" rx="2.5" ry="2.5" style="stroke:#181818;stroke-width:0.5;" width="146.4941" x="116.0532" y="313.8398"/><text fill="#000000" font-family="sans-serif" font-size="14" lengthAdjust="spacing" textLength="132.4941" x="123.0532" y="334.375">Frontend (HTML/JS)</text><rect fill="#E2E2F0" height="30.4883" rx="2.5" ry="2.5" style="stroke:#181818;stroke-width:0.5;" width="77.7451" x="553.9604" y="87.4883"/><text fill="#000000" font-family="sans-serif" font-size="14" lengthAdjust="spacing" textLength="63.7451" x="560.9604" y="108.0234">routes.py</text><rect fill="#E2E2F0" height="30.4883" rx="2.5" ry="2.5" style="stroke:#181818;stroke-width:0.5;" width="77.7451" x="553.9604" y="313.8398"/><text fill="#000000" font-family="sans-serif" font-size="14" lengthAdjust="spacing" textLength="63.7451" x="560.9604" y="334.375">routes.py</text><rect fill="#E2E2F0" height="30.4883" rx="2.5" ry="2.5" style="stroke:#181818;stroke-width:0.5;" width="84.0205" x="866.1929" y="87.4883"/><text fill="#000000" font-family="sans-serif" font-size="14" lengthAdjust="spacing" textLength="70.0205" x="873.1929" y="108.0234">models.py</text><rect fill="#E2E2F0" height="30.4883" rx="2.5" ry="2.5" style="stroke:#181818;stroke-width:0.5;" width="84.0205" x="866.1929" y="313.8398"/><text fill="#000000" font-family="sans-serif" font-size="14" lengthAdjust="spacing" textLength="70.0205" x="873.1929" y="334.375">models.py</text><polygon fill="#181818" points="177.3003,146.2871,187.3003,150.2871,177.3003,154.2871,181.3003,150.2871" style="stroke:#181818;stroke-width:1;"/><line style="stroke:#181818;stroke-width:1;" x1="23.1826" x2="183.3003" y1="150.2871" y2="150.2871"/><text fill="#000000" font-family="sans-serif" font-size="13" lengthAdjust="spacing" textLength="106.8438" x="30.1826" y="145.5449">Open task picker</text><polygon fill="#181818" points="580.833,175.5977,590.833,179.5977,580.833,183.5977,584.833,179.5977" style="stroke:#181818;stroke-width:1;"/><line style="stroke:#181818;stroke-width:1;" x1="189.3003" x2="586.833" y1="179.5977" y2="179.5977"/><text fill="#000000" font-family="sans-serif" font-size="13" lengthAdjust="spacing" textLength="379.5327" x="196.3003" y="174.8555">GET /tasks/available_tasks (routes.py: Fetch available tasks)</text><polygon fill="#181818" points="896.2031,204.9082,906.2031,208.9082,896.2031,212.9082,900.2031,208.9082" style="stroke:#181818;stroke-width:1;"/><line style="stroke:#181818;stroke-width:1;" x1="592.833" x2="902.2031" y1="208.9082" y2="208.9082"/><text fill="#000000" font-family="sans-serif" font-size="13" lengthAdjust="spacing" textLength="289.3008" x="599.833" y="204.166">Query tasks (models.py: Exclude current task)</text><polygon fill="#181818" points="603.833,234.2188,593.833,238.2188,603.833,242.2188,599.833,238.2188" style="stroke:#181818;stroke-width:1;"/><line style="stroke:#181818;stroke-width:1;stroke-dasharray:2.0,2.0;" x1="597.833" x2="907.2031" y1="238.2188" y2="238.2188"/><text fill="#000000" font-family="sans-serif" font-size="13" lengthAdjust="spacing" textLength="291.3701" x="609.833" y="233.4766">Return filtered tasks (models.py: Query result)</text><polygon fill="#181818" points="200.3003,263.5293,190.3003,267.5293,200.3003,271.5293,196.3003,267.5293" style="stroke:#181818;stroke-width:1;"/><line style="stroke:#181818;stroke-width:1;stroke-dasharray:2.0,2.0;" x1="194.3003" x2="591.833" y1="267.5293" y2="267.5293"/><text fill="#000000" font-family="sans-serif" font-size="13" lengthAdjust="spacing" textLength="302.6626" x="206.3003" y="262.7871">Return tasks as JSON (routes.py: Response sent)</text><polygon fill="#181818" points="34.1826,292.8398,24.1826,296.8398,34.1826,300.8398,30.1826,296.8398" style="stroke:#181818;stroke-width:1;"/><line style="stroke:#181818;stroke-width:1;" x1="28.1826" x2="188.3003" y1="296.8398" y2="296.8398"/><text fill="#000000" font-family="sans-serif" font-size="13" lengthAdjust="spacing" textLength="142.1177" x="40.1826" y="292.0977">Display available tasks</text><!--SRC=[RP5FJy904CNl-obUED43zjw3YGbK9IeHy6oMTWmRrdQpCnNvzWu5LcgyxP_VlddlhJZnXBilwxpTw6fjUSTuR8IYhSIr3KhVxh5tiaNf5BYwOcDqqKQyCKKJR1HNkM0RmQYChN9DZV73-lafdw-o4IpZSZo4Ozi9yKquzCootms9pxOcduYf5RknJCOS1sDoctHHO16eWMWA15Vjr5UwK-wahTJzR8tyI75kBzdV-pt6oKw1agJQ8X6zBcVcBAE25oig-TfHFE2iaGmNc7rNlgi9LHSZQPWZaPdqS79jQqdInGOVpcl9LF-ZTfeIYJillqQ65PnLJe-rh_bgyJA8jIGE-dq4LaFPeA6-qG9Jny7Rmz_eFm00]--></g></svg>