<svg xmlns="http://www.w3.org/2000/svg" xmlns:xlink="http://www.w3.org/1999/xlink" contentStyleType="text/css" height="425px" preserveAspectRatio="none" style="width:1505px;height:425px;background:#FFFFFF;" version="1.1" viewBox="0 0 1505 425" width="1505px" zoomAndPan="magnify"><title>Unarchive Task Interaction Flow with File Interactions</title><defs/><g><text fill="#000000" font-family="sans-serif" font-size="14" font-weight="bold" lengthAdjust="spacing" textLength="388.7734" x="557.4304" y="28.5352">Unarchive Task Interaction Flow with File Interactions</text><line style="stroke:#181818;stroke-width:0.5;stroke-dasharray:5.0,5.0;" x1="23" x2="23" y1="118.9766" y2="344.1504"/><line style="stroke:#181818;stroke-width:0.5;stroke-dasharray:5.0,5.0;" x1="233.436" x2="233.436" y1="118.9766" y2="344.1504"/><line style="stroke:#181818;stroke-width:0.5;stroke-dasharray:5.0,5.0;" x1="655.4941" x2="655.4941" y1="118.9766" y2="344.1504"/><line style="stroke:#181818;stroke-width:0.5;stroke-dasharray:5.0,5.0;" x1="1049.1416" x2="1049.1416" y1="118.9766" y2="344.1504"/><line style="stroke:#181818;stroke-width:0.5;stroke-dasharray:5.0,5.0;" x1="1457.6138" x2="1457.6138" y1="118.9766" y2="344.1504"/><text fill="#000000" font-family="sans-serif" font-size="14" lengthAdjust="spacing" textLength="30.3652" x="5" y="116.0234">User</text><ellipse cx="23.1826" cy="50.9883" fill="#E2E2F0" rx="8" ry="8" style="stroke:#181818;stroke-width:0.5;"/><path d="M23.1826,58.9883 L23.1826,85.9883 M10.1826,66.9883 L36.1826,66.9883 M23.1826,85.9883 L10.1826,100.9883 M23.1826,85.9883 L36.1826,100.9883 " fill="none" style="stroke:#181818;stroke-width:0.5;"/><text fill="#000000" font-family="sans-serif" font-size="14" lengthAdjust="spacing" textLength="30.3652" x="5" y="356.6855">User</text><ellipse cx="23.1826" cy="368.1387" fill="#E2E2F0" rx="8" ry="8" style="stroke:#181818;stroke-width:0.5;"/><path d="M23.1826,376.1387 L23.1826,403.1387 M10.1826,384.1387 L36.1826,384.1387 M23.1826,403.1387 L10.1826,418.1387 M23.1826,403.1387 L36.1826,418.1387 " fill="none" style="stroke:#181818;stroke-width:0.5;"/><rect fill="#E2E2F0" height="30.4883" rx="2.5" ry="2.5" style="stroke:#181818;stroke-width:0.5;" width="146.4941" x="160.436" y="87.4883"/><text fill="#000000" font-family="sans-serif" font-size="14" lengthAdjust="spacing" textLength="132.4941" x="167.436" y="108.0234">Frontend (HTML/JS)</text><rect fill="#E2E2F0" height="30.4883" rx="2.5" ry="2.5" style="stroke:#181818;stroke-width:0.5;" width="146.4941" x="160.436" y="343.1504"/><text fill="#000000" font-family="sans-serif" font-size="14" lengthAdjust="spacing" textLength="132.4941" x="167.436" y="363.6855">Frontend (HTML/JS)</text><rect fill="#E2E2F0" height="30.4883" rx="2.5" ry="2.5" style="stroke:#181818;stroke-width:0.5;" width="77.7451" x="617.4941" y="87.4883"/><text fill="#000000" font-family="sans-serif" font-size="14" lengthAdjust="spacing" textLength="63.7451" x="624.4941" y="108.0234">routes.py</text><rect fill="#E2E2F0" height="30.4883" rx="2.5" ry="2.5" style="stroke:#181818;stroke-width:0.5;" width="77.7451" x="617.4941" y="343.1504"/><text fill="#000000" font-family="sans-serif" font-size="14" lengthAdjust="spacing" textLength="63.7451" x="624.4941" y="363.6855">routes.py</text><rect fill="#E2E2F0" height="30.4883" rx="2.5" ry="2.5" style="stroke:#181818;stroke-width:0.5;" width="63.7109" x="1018.1416" y="87.4883"/><text fill="#000000" font-family="sans-serif" font-size="14" lengthAdjust="spacing" textLength="49.7109" x="1025.1416" y="108.0234">utils.py</text><rect fill="#E2E2F0" height="30.4883" rx="2.5" ry="2.5" style="stroke:#181818;stroke-width:0.5;" width="63.7109" x="1018.1416" y="343.1504"/><text fill="#000000" font-family="sans-serif" font-size="14" lengthAdjust="spacing" textLength="49.7109" x="1025.1416" y="363.6855">utils.py</text><rect fill="#E2E2F0" height="30.4883" rx="2.5" ry="2.5" style="stroke:#181818;stroke-width:0.5;" width="84.0205" x="1415.6138" y="87.4883"/><text fill="#000000" font-family="sans-serif" font-size="14" lengthAdjust="spacing" textLength="70.0205" x="1422.6138" y="108.0234">models.py</text><rect fill="#E2E2F0" height="30.4883" rx="2.5" ry="2.5" style="stroke:#181818;stroke-width:0.5;" width="84.0205" x="1415.6138" y="343.1504"/><text fill="#000000" font-family="sans-serif" font-size="14" lengthAdjust="spacing" textLength="70.0205" x="1422.6138" y="363.6855">models.py</text><polygon fill="#181818" points="221.6831,146.2871,231.6831,150.2871,221.6831,154.2871,225.6831,150.2871" style="stroke:#181818;stroke-width:1;"/><line style="stroke:#181818;stroke-width:1;" x1="23.1826" x2="227.6831" y1="150.2871" y2="150.2871"/><text fill="#000000" font-family="sans-serif" font-size="13" lengthAdjust="spacing" textLength="186.5005" x="30.1826" y="145.5449">Click "Unarchive Task" button</text><polygon fill="#181818" points="644.3667,175.5977,654.3667,179.5977,644.3667,183.5977,648.3667,179.5977" style="stroke:#181818;stroke-width:1;"/><line style="stroke:#181818;stroke-width:1;" x1="233.6831" x2="650.3667" y1="179.5977" y2="179.5977"/><text fill="#000000" font-family="sans-serif" font-size="13" lengthAdjust="spacing" textLength="398.6836" x="240.6831" y="174.8555">POST /tasks/unarchive/&lt;task_id&gt; (routes.py: Handles request)</text><polygon fill="#181818" points="1037.9971,204.9082,1047.9971,208.9082,1037.9971,212.9082,1041.9971,208.9082" style="stroke:#181818;stroke-width:1;"/><line style="stroke:#181818;stroke-width:1;" x1="656.3667" x2="1043.9971" y1="208.9082" y2="208.9082"/><text fill="#000000" font-family="sans-serif" font-size="13" lengthAdjust="spacing" textLength="369.6304" x="663.3667" y="204.166">TaskService.unarchive_task(task) (utils.py: Unarchive logic)</text><polygon fill="#181818" points="1445.624,234.2188,1455.624,238.2188,1445.624,242.2188,1449.624,238.2188" style="stroke:#181818;stroke-width:1;"/><line style="stroke:#181818;stroke-width:1;" x1="1049.9971" x2="1451.624" y1="238.2188" y2="238.2188"/><text fill="#000000" font-family="sans-serif" font-size="13" lengthAdjust="spacing" textLength="383.627" x="1056.9971" y="233.4766">Update task and subtasks (models.py: Set is_archived=False)</text><polygon fill="#181818" points="1060.9971,263.5293,1050.9971,267.5293,1060.9971,271.5293,1056.9971,267.5293" style="stroke:#181818;stroke-width:1;"/><line style="stroke:#181818;stroke-width:1;stroke-dasharray:2.0,2.0;" x1="1054.9971" x2="1456.624" y1="267.5293" y2="267.5293"/><text fill="#000000" font-family="sans-serif" font-size="13" lengthAdjust="spacing" textLength="275.9644" x="1066.9971" y="262.7871">Save changes (models.py: Commit changes)</text><polygon fill="#181818" points="667.3667,292.8398,657.3667,296.8398,667.3667,300.8398,663.3667,296.8398" style="stroke:#181818;stroke-width:1;"/><line style="stroke:#181818;stroke-width:1;stroke-dasharray:2.0,2.0;" x1="661.3667" x2="1048.9971" y1="296.8398" y2="296.8398"/><text fill="#000000" font-family="sans-serif" font-size="13" lengthAdjust="spacing" textLength="312.4126" x="673.3667" y="292.0977">Return success (utils.py: Business logic complete)</text><polygon fill="#181818" points="244.6831,322.1504,234.6831,326.1504,244.6831,330.1504,240.6831,326.1504" style="stroke:#181818;stroke-width:1;"/><line style="stroke:#181818;stroke-width:1;stroke-dasharray:2.0,2.0;" x1="238.6831" x2="655.3667" y1="326.1504" y2="326.1504"/><text fill="#000000" font-family="sans-serif" font-size="13" lengthAdjust="spacing" textLength="293.0396" x="250.6831" y="321.4082">Redirect to task list (routes.py: Response sent)</text><!--SRC=[LPBBReCm44Nt_eeHArYaxACsYwP2QTMgLHxho36ZP1J7ffuXKV- -XW213VBZpfbxnmY9HTWv7So9hWXRpMTuTu916o7leB3-1ZUI4nGKbQChLYekV80TOr2L3aA6Akq4aYBug7CbfAljrsV-iSaIq0pzyLGSV2t8JzLVgrctkwcY5hA3O8FXIWQdYeilyI5vqw8Fcb6fnXhC5aDdcCFIaZb3CesSmA4MyKuDmbXqjn9BVhutMyWbwZYl-xhykJdOKxc0T8WmXvLsfOrL0NzhPCbKHucypda4DYsxtTC0t3UyjFbaaFQHvwEtiVv89bCz9XBxe16vgqej24qvH0l0zQ4r3Eamctbq842yxu3bIw4jOwO6p6pYSgDZKtFIxeXJpD9VBYJzrSZHU6Xhb3guwCCOP1udUgsPN7FM1WBZBvL5mSUefW-snf826W7nztYMM2OpNoDNyNz4O7II_GC0]--></g></svg>