<svg xmlns="http://www.w3.org/2000/svg" xmlns:xlink="http://www.w3.org/1999/xlink" contentStyleType="text/css" height="438px" preserveAspectRatio="none" style="width:1124px;height:438px;background:#FFFFFF;" version="1.1" viewBox="0 0 1124 438" width="1124px" zoomAndPan="magnify"><title>Task Hierarchy Interaction Flow with File Interactions</title><defs/><g><text fill="#000000" font-family="sans-serif" font-size="14" font-weight="bold" lengthAdjust="spacing" textLength="386.415" x="368.104" y="28.5352">Task Hierarchy Interaction Flow with File Interactions</text><line style="stroke:#181818;stroke-width:0.5;stroke-dasharray:5.0,5.0;" x1="23" x2="23" y1="118.9766" y2="357.1504"/><line style="stroke:#181818;stroke-width:0.5;stroke-dasharray:5.0,5.0;" x1="205.2842" x2="205.2842" y1="118.9766" y2="357.1504"/><line style="stroke:#181818;stroke-width:0.5;stroke-dasharray:5.0,5.0;" x1="659.1821" x2="659.1821" y1="118.9766" y2="357.1504"/><line style="stroke:#181818;stroke-width:0.5;stroke-dasharray:5.0,5.0;" x1="1076.6025" x2="1076.6025" y1="118.9766" y2="357.1504"/><text fill="#000000" font-family="sans-serif" font-size="14" lengthAdjust="spacing" textLength="30.3652" x="5" y="116.0234">User</text><ellipse cx="23.1826" cy="50.9883" fill="#E2E2F0" rx="8" ry="8" style="stroke:#181818;stroke-width:0.5;"/><path d="M23.1826,58.9883 L23.1826,85.9883 M10.1826,66.9883 L36.1826,66.9883 M23.1826,85.9883 L10.1826,100.9883 M23.1826,85.9883 L36.1826,100.9883 " fill="none" style="stroke:#181818;stroke-width:0.5;"/><text fill="#000000" font-family="sans-serif" font-size="14" lengthAdjust="spacing" textLength="30.3652" x="5" y="369.6855">User</text><ellipse cx="23.1826" cy="381.1387" fill="#E2E2F0" rx="8" ry="8" style="stroke:#181818;stroke-width:0.5;"/><path d="M23.1826,389.1387 L23.1826,416.1387 M10.1826,397.1387 L36.1826,397.1387 M23.1826,416.1387 L10.1826,431.1387 M23.1826,416.1387 L36.1826,431.1387 " fill="none" style="stroke:#181818;stroke-width:0.5;"/><rect fill="#E2E2F0" height="30.4883" rx="2.5" ry="2.5" style="stroke:#181818;stroke-width:0.5;" width="146.4941" x="132.2842" y="87.4883"/><text fill="#000000" font-family="sans-serif" font-size="14" lengthAdjust="spacing" textLength="132.4941" x="139.2842" y="108.0234">Frontend (HTML/JS)</text><rect fill="#E2E2F0" height="30.4883" rx="2.5" ry="2.5" style="stroke:#181818;stroke-width:0.5;" width="146.4941" x="132.2842" y="356.1504"/><text fill="#000000" font-family="sans-serif" font-size="14" lengthAdjust="spacing" textLength="132.4941" x="139.2842" y="376.6855">Frontend (HTML/JS)</text><rect fill="#E2E2F0" height="30.4883" rx="2.5" ry="2.5" style="stroke:#181818;stroke-width:0.5;" width="77.7451" x="621.1821" y="87.4883"/><text fill="#000000" font-family="sans-serif" font-size="14" lengthAdjust="spacing" textLength="63.7451" x="628.1821" y="108.0234">routes.py</text><rect fill="#E2E2F0" height="30.4883" rx="2.5" ry="2.5" style="stroke:#181818;stroke-width:0.5;" width="77.7451" x="621.1821" y="356.1504"/><text fill="#000000" font-family="sans-serif" font-size="14" lengthAdjust="spacing" textLength="63.7451" x="628.1821" y="376.6855">routes.py</text><rect fill="#E2E2F0" height="30.4883" rx="2.5" ry="2.5" style="stroke:#181818;stroke-width:0.5;" width="84.0205" x="1034.6025" y="87.4883"/><text fill="#000000" font-family="sans-serif" font-size="14" lengthAdjust="spacing" textLength="70.0205" x="1041.6025" y="108.0234">models.py</text><rect fill="#E2E2F0" height="30.4883" rx="2.5" ry="2.5" style="stroke:#181818;stroke-width:0.5;" width="84.0205" x="1034.6025" y="356.1504"/><text fill="#000000" font-family="sans-serif" font-size="14" lengthAdjust="spacing" textLength="70.0205" x="1041.6025" y="376.6855">models.py</text><polygon fill="#181818" points="193.5313,146.2871,203.5313,150.2871,193.5313,154.2871,197.5313,150.2871" style="stroke:#181818;stroke-width:1;"/><line style="stroke:#181818;stroke-width:1;" x1="23.1826" x2="199.5313" y1="150.2871" y2="150.2871"/><text fill="#000000" font-family="sans-serif" font-size="13" lengthAdjust="spacing" textLength="158.3486" x="30.1826" y="145.5449">Open task hierarchy view</text><polygon fill="#181818" points="648.0547,175.5977,658.0547,179.5977,648.0547,183.5977,652.0547,179.5977" style="stroke:#181818;stroke-width:1;"/><line style="stroke:#181818;stroke-width:1;" x1="205.5313" x2="654.0547" y1="179.5977" y2="179.5977"/><text fill="#000000" font-family="sans-serif" font-size="13" lengthAdjust="spacing" textLength="430.5234" x="212.5313" y="174.8555">GET /tasks/hierarchy/&lt;project_id&gt; (routes.py: Fetch task hierarchy)</text><polygon fill="#181818" points="1064.6128,204.9082,1074.6128,208.9082,1064.6128,212.9082,1068.6128,208.9082" style="stroke:#181818;stroke-width:1;"/><line style="stroke:#181818;stroke-width:1;" x1="660.0547" x2="1070.6128" y1="208.9082" y2="208.9082"/><text fill="#000000" font-family="sans-serif" font-size="13" lengthAdjust="spacing" textLength="392.5581" x="667.0547" y="204.166">Query tasks and relationships (models.py: Fetch project tasks)</text><line style="stroke:#181818;stroke-width:1;" x1="660.0547" x2="702.0547" y1="238.2188" y2="238.2188"/><line style="stroke:#181818;stroke-width:1;" x1="702.0547" x2="702.0547" y1="238.2188" y2="251.2188"/><line style="stroke:#181818;stroke-width:1;" x1="661.0547" x2="702.0547" y1="251.2188" y2="251.2188"/><polygon fill="#181818" points="671.0547,247.2188,661.0547,251.2188,671.0547,255.2188,667.0547,251.2188" style="stroke:#181818;stroke-width:1;"/><text fill="#000000" font-family="sans-serif" font-size="13" lengthAdjust="spacing" textLength="365.8789" x="667.0547" y="233.4766">Build hierarchy tree (routes.py: Parent-child relationships)</text><polygon fill="#181818" points="671.0547,276.5293,661.0547,280.5293,671.0547,284.5293,667.0547,280.5293" style="stroke:#181818;stroke-width:1;"/><line style="stroke:#181818;stroke-width:1;stroke-dasharray:2.0,2.0;" x1="665.0547" x2="1075.6128" y1="280.5293" y2="280.5293"/><text fill="#000000" font-family="sans-serif" font-size="13" lengthAdjust="spacing" textLength="267.0015" x="677.0547" y="275.7871">Return task data (models.py: Query result)</text><polygon fill="#181818" points="216.5313,305.8398,206.5313,309.8398,216.5313,313.8398,212.5313,309.8398" style="stroke:#181818;stroke-width:1;"/><line style="stroke:#181818;stroke-width:1;stroke-dasharray:2.0,2.0;" x1="210.5313" x2="659.0547" y1="309.8398" y2="309.8398"/><text fill="#000000" font-family="sans-serif" font-size="13" lengthAdjust="spacing" textLength="328.1738" x="222.5313" y="305.0977">Return hierarchy as JSON (routes.py: Response sent)</text><polygon fill="#181818" points="34.1826,335.1504,24.1826,339.1504,34.1826,343.1504,30.1826,339.1504" style="stroke:#181818;stroke-width:1;"/><line style="stroke:#181818;stroke-width:1;" x1="28.1826" x2="204.5313" y1="339.1504" y2="339.1504"/><text fill="#000000" font-family="sans-serif" font-size="13" lengthAdjust="spacing" textLength="138.6519" x="40.1826" y="334.4082">Render hierarchy view</text><!--SRC=[NP5DJyCm38Rl-HNMJkjXz3wX7H2KCG63RPnHrbfge2IHupBjt-D-B6kukUtJruzjDjmW77JuXhL1qbJMPtYoB6N9nbae6dU2a-4Q2YFav5DGIWf7y16GbDV4fZHUMuPPGKuuMy5yVNXvpZVxR0OwmELr2fDh6SEDF_VChdzAYHzNOHE9Uytwg0CgrJM6nIhcmXAs7YrmDquTn_arU5AH4Nxe8VJZmm7oZWvvnFDRJ-uBI_uqrGhcqMu91N9P_mlFr1WciHSn2NvlaSuz6a1BKy96zpkhZGymZmDTGiUMmn_JpAXwrvgccWp5X9ZOlMb2oukoxhYaNwQYsM8QkKDkQTnM9KJYDKn06Dg6hqBfiiU0gvHSPxFVlYPUEmnUH122w6N97VhxTOIjf4WFzWS0]--></g></svg>